solid OpenSCAD_Model
  facet normal -1 0 0
    outer loop
      vertex -16.25 -3 -14
      vertex -16.25 -1 15
      vertex -16.25 -1 -14
    endloop
  endfacet
  facet normal -1 0 0
    outer loop
      vertex -16.25 -3 35
      vertex -16.25 -1 15
      vertex -16.25 -3 -14
    endloop
  endfacet
  facet normal -1 0 0
    outer loop
      vertex -16.25 -1 15
      vertex -16.25 -3 35
      vertex -16.25 -1 17
    endloop
  endfacet
  facet normal -1 0 0
    outer loop
      vertex -16.25 -1 15
      vertex -16.25 37 17
      vertex -16.25 37 15
    endloop
  endfacet
  facet normal -1 -0 0
    outer loop
      vertex -16.25 37 17
      vertex -16.25 -1 15
      vertex -16.25 -1 17
    endloop
  endfacet
  facet normal -1 0 0
    outer loop
      vertex -16.25 -1 33
      vertex -16.25 37 35
      vertex -16.25 37 33
    endloop
  endfacet
  facet normal -1 0 0
    outer loop
      vertex -16.25 -1 33
      vertex -16.25 -3 35
      vertex -16.25 37 35
    endloop
  endfacet
  facet normal -1 0 0
    outer loop
      vertex -16.25 -1 17
      vertex -16.25 -3 35
      vertex -16.25 -1 33
    endloop
  endfacet
  facet normal 0 0 -1
    outer loop
      vertex -16.25 -1 33
      vertex -2.25 37 33
      vertex -2.25 -1 33
    endloop
  endfacet
  facet normal -0 0 -1
    outer loop
      vertex -2.25 37 33
      vertex -16.25 -1 33
      vertex -16.25 37 33
    endloop
  endfacet
  facet normal 1 0 0
    outer loop
      vertex -2.25 37 35
      vertex -2.25 -1 33
      vertex -2.25 37 33
    endloop
  endfacet
  facet normal 1 0 0
    outer loop
      vertex -2.25 -3 35
      vertex -2.25 -1 17
      vertex -2.25 -1 33
    endloop
  endfacet
  facet normal 1 0 0
    outer loop
      vertex -2.25 -1 17
      vertex -2.25 -3 35
      vertex -2.25 -1 15
    endloop
  endfacet
  facet normal 1 -0 0
    outer loop
      vertex -2.25 -3 35
      vertex -2.25 -1 33
      vertex -2.25 37 35
    endloop
  endfacet
  facet normal 1 0 0
    outer loop
      vertex -2.25 -1 15
      vertex -2.25 -3 35
      vertex -2.25 -3 -14
    endloop
  endfacet
  facet normal 1 0 0
    outer loop
      vertex -2.25 -1 15
      vertex -2.25 -3 -14
      vertex -2.25 -1 -14
    endloop
  endfacet
  facet normal 1 -0 0
    outer loop
      vertex -2.25 -1 17
      vertex -2.25 37 15
      vertex -2.25 37 17
    endloop
  endfacet
  facet normal 1 0 0
    outer loop
      vertex -2.25 37 15
      vertex -2.25 -1 17
      vertex -2.25 -1 15
    endloop
  endfacet
  facet normal 0 1 -0
    outer loop
      vertex -2.25 -1 17
      vertex -16.25 -1 33
      vertex -2.25 -1 33
    endloop
  endfacet
  facet normal 0 1 0
    outer loop
      vertex -16.25 -1 33
      vertex -2.25 -1 17
      vertex -16.25 -1 17
    endloop
  endfacet
  facet normal 0 1 0
    outer loop
      vertex -2.25 -1 15
      vertex -8.25 -1 10
      vertex -16.25 -1 15
    endloop
  endfacet
  facet normal 0 1 -0
    outer loop
      vertex -2.25 -1 -14
      vertex -8.25 -1 10
      vertex -2.25 -1 15
    endloop
  endfacet
  facet normal 0 1 0
    outer loop
      vertex -8.25 -1 -10
      vertex -2.25 -1 -14
      vertex -10.25 -1 -10
    endloop
  endfacet
  facet normal 0 1 0
    outer loop
      vertex -8.25 -1 10
      vertex -2.25 -1 -14
      vertex -8.25 -1 -10
    endloop
  endfacet
  facet normal 0 1 -0
    outer loop
      vertex -10.25 -1 10
      vertex -16.25 -1 15
      vertex -8.25 -1 10
    endloop
  endfacet
  facet normal 0 1 0
    outer loop
      vertex -16.25 -1 -14
      vertex -10.25 -1 10
      vertex -10.25 -1 -10
    endloop
  endfacet
  facet normal 0 1 0
    outer loop
      vertex -10.25 -1 10
      vertex -16.25 -1 -14
      vertex -16.25 -1 15
    endloop
  endfacet
  facet normal 0 1 0
    outer loop
      vertex -16.25 -1 -14
      vertex -10.25 -1 -10
      vertex -2.25 -1 -14
    endloop
  endfacet
  facet normal 0 0 -1
    outer loop
      vertex -16.25 -3 -14
      vertex -2.25 -1 -14
      vertex -2.25 -3 -14
    endloop
  endfacet
  facet normal -0 0 -1
    outer loop
      vertex -2.25 -1 -14
      vertex -16.25 -3 -14
      vertex -16.25 -1 -14
    endloop
  endfacet
  facet normal 0 -1 0
    outer loop
      vertex -16.25 -3 35
      vertex -10.25 -3 10
      vertex -2.25 -3 35
    endloop
  endfacet
  facet normal 0 -1 0
    outer loop
      vertex -16.25 -3 -14
      vertex -10.25 -3 10
      vertex -16.25 -3 35
    endloop
  endfacet
  facet normal 0 -1 -0
    outer loop
      vertex -10.25 -3 -10
      vertex -16.25 -3 -14
      vertex -8.25 -3 -10
    endloop
  endfacet
  facet normal 0 -1 -0
    outer loop
      vertex -10.25 -3 10
      vertex -16.25 -3 -14
      vertex -10.25 -3 -10
    endloop
  endfacet
  facet normal 0 -1 0
    outer loop
      vertex -8.25 -3 10
      vertex -2.25 -3 35
      vertex -10.25 -3 10
    endloop
  endfacet
  facet normal 0 -1 0
    outer loop
      vertex -2.25 -3 -14
      vertex -8.25 -3 10
      vertex -8.25 -3 -10
    endloop
  endfacet
  facet normal 0 -1 0
    outer loop
      vertex -8.25 -3 10
      vertex -2.25 -3 -14
      vertex -2.25 -3 35
    endloop
  endfacet
  facet normal 0 -1 0
    outer loop
      vertex -2.25 -3 -14
      vertex -8.25 -3 -10
      vertex -16.25 -3 -14
    endloop
  endfacet
  facet normal 1 -0 0
    outer loop
      vertex -10.25 -3 10
      vertex -10.25 -1 -10
      vertex -10.25 -1 10
    endloop
  endfacet
  facet normal 1 0 0
    outer loop
      vertex -10.25 -1 -10
      vertex -10.25 -3 10
      vertex -10.25 -3 -10
    endloop
  endfacet
  facet normal 0 0 -1
    outer loop
      vertex -10.25 -3 10
      vertex -8.25 -1 10
      vertex -8.25 -3 10
    endloop
  endfacet
  facet normal -0 0 -1
    outer loop
      vertex -8.25 -1 10
      vertex -10.25 -3 10
      vertex -10.25 -1 10
    endloop
  endfacet
  facet normal -1 0 0
    outer loop
      vertex -8.25 -3 -10
      vertex -8.25 -1 10
      vertex -8.25 -1 -10
    endloop
  endfacet
  facet normal -1 -0 0
    outer loop
      vertex -8.25 -1 10
      vertex -8.25 -3 -10
      vertex -8.25 -3 10
    endloop
  endfacet
  facet normal -0 0 1
    outer loop
      vertex -10.25 -1 -10
      vertex -8.25 -3 -10
      vertex -8.25 -1 -10
    endloop
  endfacet
  facet normal 0 0 1
    outer loop
      vertex -8.25 -3 -10
      vertex -10.25 -1 -10
      vertex -10.25 -3 -10
    endloop
  endfacet
  facet normal -0 0 1
    outer loop
      vertex -16.25 37 35
      vertex -2.25 -3 35
      vertex -2.25 37 35
    endloop
  endfacet
  facet normal 0 0 1
    outer loop
      vertex -2.25 -3 35
      vertex -16.25 37 35
      vertex -16.25 -3 35
    endloop
  endfacet
  facet normal 0 1 -0
    outer loop
      vertex -2.25 37 33
      vertex -16.25 37 35
      vertex -2.25 37 35
    endloop
  endfacet
  facet normal 0 1 0
    outer loop
      vertex -16.25 37 35
      vertex -2.25 37 33
      vertex -16.25 37 33
    endloop
  endfacet
  facet normal -0 0 1
    outer loop
      vertex -16.25 37 17
      vertex -2.25 -1 17
      vertex -2.25 37 17
    endloop
  endfacet
  facet normal 0 0 1
    outer loop
      vertex -2.25 -1 17
      vertex -16.25 37 17
      vertex -16.25 -1 17
    endloop
  endfacet
  facet normal 0 0 -1
    outer loop
      vertex -16.25 -1 15
      vertex -2.25 37 15
      vertex -2.25 -1 15
    endloop
  endfacet
  facet normal -0 0 -1
    outer loop
      vertex -2.25 37 15
      vertex -16.25 -1 15
      vertex -16.25 37 15
    endloop
  endfacet
  facet normal 0 1 -0
    outer loop
      vertex -2.25 37 15
      vertex -16.25 37 17
      vertex -2.25 37 17
    endloop
  endfacet
  facet normal 0 1 0
    outer loop
      vertex -16.25 37 17
      vertex -2.25 37 15
      vertex -16.25 37 15
    endloop
  endfacet
endsolid OpenSCAD_Model
