solid OpenSCAD_Model
  facet normal -1 0 0
    outer loop
      vertex -16.25 -3 -9
      vertex -16.25 -1 15
      vertex -16.25 -1 -9
    endloop
  endfacet
  facet normal -1 0 0
    outer loop
      vertex -16.25 -3 35.5
      vertex -16.25 -1 15
      vertex -16.25 -3 -9
    endloop
  endfacet
  facet normal -1 0 0
    outer loop
      vertex -16.25 -1 15
      vertex -16.25 -3 35.5
      vertex -16.25 -1 17.5
    endloop
  endfacet
  facet normal -1 0 0
    outer loop
      vertex -16.25 -1 15
      vertex -16.25 47 17.5
      vertex -16.25 47 15
    endloop
  endfacet
  facet normal -1 -0 0
    outer loop
      vertex -16.25 47 17.5
      vertex -16.25 -1 15
      vertex -16.25 -1 17.5
    endloop
  endfacet
  facet normal -1 0 0
    outer loop
      vertex -16.25 -1 33
      vertex -16.25 47 35.5
      vertex -16.25 47 33
    endloop
  endfacet
  facet normal -1 0 0
    outer loop
      vertex -16.25 -1 33
      vertex -16.25 -3 35.5
      vertex -16.25 47 35.5
    endloop
  endfacet
  facet normal -1 0 0
    outer loop
      vertex -16.25 -1 17.5
      vertex -16.25 -3 35.5
      vertex -16.25 -1 33
    endloop
  endfacet
  facet normal 0 0 1
    outer loop
      vertex -8.75302 41.4363 35.5
      vertex -2.25 47 35.5
      vertex -8 43 35.5
    endloop
  endfacet
  facet normal 0 0 1
    outer loop
      vertex -2.25 47 35.5
      vertex -8.75302 44.5637 35.5
      vertex -8 43 35.5
    endloop
  endfacet
  facet normal 0 0 1
    outer loop
      vertex -2.25 47 35.5
      vertex -10.445 44.9499 35.5
      vertex -8.75302 44.5637 35.5
    endloop
  endfacet
  facet normal 0 0 1
    outer loop
      vertex -11.8019 43.8678 35.5
      vertex -16.25 47 35.5
      vertex -11.8019 42.1322 35.5
    endloop
  endfacet
  facet normal 0 0 1
    outer loop
      vertex -10.445 44.9499 35.5
      vertex -16.25 47 35.5
      vertex -11.8019 43.8678 35.5
    endloop
  endfacet
  facet normal -0 0 1
    outer loop
      vertex -16.25 47 35.5
      vertex -10.445 44.9499 35.5
      vertex -2.25 47 35.5
    endloop
  endfacet
  facet normal 0 0 1
    outer loop
      vertex -2.25 47 35.5
      vertex -8.75302 41.4363 35.5
      vertex -2.25 -3 35.5
    endloop
  endfacet
  facet normal -0 0 1
    outer loop
      vertex -10.445 41.0501 35.5
      vertex -2.25 -3 35.5
      vertex -8.75302 41.4363 35.5
    endloop
  endfacet
  facet normal 0 0 1
    outer loop
      vertex -16.25 -3 35.5
      vertex -10.445 41.0501 35.5
      vertex -11.8019 42.1322 35.5
    endloop
  endfacet
  facet normal 0 0 1
    outer loop
      vertex -16.25 -3 35.5
      vertex -11.8019 42.1322 35.5
      vertex -16.25 47 35.5
    endloop
  endfacet
  facet normal 0 0 1
    outer loop
      vertex -10.445 41.0501 35.5
      vertex -16.25 -3 35.5
      vertex -2.25 -3 35.5
    endloop
  endfacet
  facet normal 1 0 0
    outer loop
      vertex -2.25 47 35.5
      vertex -2.25 -1 33
      vertex -2.25 47 33
    endloop
  endfacet
  facet normal 1 0 0
    outer loop
      vertex -2.25 -3 35.5
      vertex -2.25 -1 17.5
      vertex -2.25 -1 33
    endloop
  endfacet
  facet normal 1 0 0
    outer loop
      vertex -2.25 -1 17.5
      vertex -2.25 -3 35.5
      vertex -2.25 -1 15
    endloop
  endfacet
  facet normal 1 -0 0
    outer loop
      vertex -2.25 -3 35.5
      vertex -2.25 -1 33
      vertex -2.25 47 35.5
    endloop
  endfacet
  facet normal 1 0 0
    outer loop
      vertex -2.25 -1 15
      vertex -2.25 -3 35.5
      vertex -2.25 -3 -9
    endloop
  endfacet
  facet normal 1 0 0
    outer loop
      vertex -2.25 -1 15
      vertex -2.25 -3 -9
      vertex -2.25 -1 -9
    endloop
  endfacet
  facet normal 1 -0 0
    outer loop
      vertex -2.25 -1 17.5
      vertex -2.25 47 15
      vertex -2.25 47 17.5
    endloop
  endfacet
  facet normal 1 0 0
    outer loop
      vertex -2.25 47 15
      vertex -2.25 -1 17.5
      vertex -2.25 -1 15
    endloop
  endfacet
  facet normal 0 1 -0
    outer loop
      vertex -2.25 47 33
      vertex -16.25 47 35.5
      vertex -2.25 47 35.5
    endloop
  endfacet
  facet normal 0 1 0
    outer loop
      vertex -16.25 47 35.5
      vertex -2.25 47 33
      vertex -16.25 47 33
    endloop
  endfacet
  facet normal 0 0 -1
    outer loop
      vertex -8.75302 41.4363 33
      vertex -2.25 47 33
      vertex -2.25 -1 33
    endloop
  endfacet
  facet normal 0 0 -1
    outer loop
      vertex -2.25 47 33
      vertex -8.75302 41.4363 33
      vertex -8 43 33
    endloop
  endfacet
  facet normal 0 0 -1
    outer loop
      vertex -2.25 -1 33
      vertex -10.445 41.0501 33
      vertex -8.75302 41.4363 33
    endloop
  endfacet
  facet normal 0 0 -1
    outer loop
      vertex -16.25 -1 33
      vertex -10.445 41.0501 33
      vertex -2.25 -1 33
    endloop
  endfacet
  facet normal 0 0 -1
    outer loop
      vertex -16.25 47 33
      vertex -11.8019 42.1322 33
      vertex -16.25 -1 33
    endloop
  endfacet
  facet normal -0 0 -1
    outer loop
      vertex -10.445 41.0501 33
      vertex -16.25 -1 33
      vertex -11.8019 42.1322 33
    endloop
  endfacet
  facet normal 0 0 -1
    outer loop
      vertex -8.75302 44.5637 33
      vertex -2.25 47 33
      vertex -8 43 33
    endloop
  endfacet
  facet normal 0 0 -1
    outer loop
      vertex -10.445 44.9499 33
      vertex -2.25 47 33
      vertex -8.75302 44.5637 33
    endloop
  endfacet
  facet normal 0 0 -1
    outer loop
      vertex -10.445 44.9499 33
      vertex -16.25 47 33
      vertex -2.25 47 33
    endloop
  endfacet
  facet normal 0 0 -1
    outer loop
      vertex -11.8019 43.8678 33
      vertex -16.25 47 33
      vertex -10.445 44.9499 33
    endloop
  endfacet
  facet normal 0 0 -1
    outer loop
      vertex -11.8019 42.1322 33
      vertex -16.25 47 33
      vertex -11.8019 43.8678 33
    endloop
  endfacet
  facet normal 0 -1 0
    outer loop
      vertex -16.25 -3 35.5
      vertex -10.25 -3 10
      vertex -2.25 -3 35.5
    endloop
  endfacet
  facet normal 0 -1 0
    outer loop
      vertex -16.25 -3 -9
      vertex -10.25 -3 10
      vertex -16.25 -3 35.5
    endloop
  endfacet
  facet normal 0 -1 -0
    outer loop
      vertex -10.25 -3 -5
      vertex -16.25 -3 -9
      vertex -8.25 -3 -5
    endloop
  endfacet
  facet normal 0 -1 -0
    outer loop
      vertex -10.25 -3 10
      vertex -16.25 -3 -9
      vertex -10.25 -3 -5
    endloop
  endfacet
  facet normal 0 -1 0
    outer loop
      vertex -8.25 -3 10
      vertex -2.25 -3 35.5
      vertex -10.25 -3 10
    endloop
  endfacet
  facet normal 0 -1 0
    outer loop
      vertex -2.25 -3 -9
      vertex -8.25 -3 10
      vertex -8.25 -3 -5
    endloop
  endfacet
  facet normal 0 -1 0
    outer loop
      vertex -8.25 -3 10
      vertex -2.25 -3 -9
      vertex -2.25 -3 35.5
    endloop
  endfacet
  facet normal 0 -1 0
    outer loop
      vertex -2.25 -3 -9
      vertex -8.25 -3 -5
      vertex -16.25 -3 -9
    endloop
  endfacet
  facet normal -0.900969 -0.433884 0
    outer loop
      vertex -8 43 33
      vertex -8.75302 44.5637 35.5
      vertex -8.75302 44.5637 33
    endloop
  endfacet
  facet normal -0.900969 -0.433884 0
    outer loop
      vertex -8.75302 44.5637 35.5
      vertex -8 43 33
      vertex -8 43 35.5
    endloop
  endfacet
  facet normal 1 -0 0
    outer loop
      vertex -11.8019 42.1322 35.5
      vertex -11.8019 43.8678 33
      vertex -11.8019 43.8678 35.5
    endloop
  endfacet
  facet normal 1 0 0
    outer loop
      vertex -11.8019 43.8678 33
      vertex -11.8019 42.1322 35.5
      vertex -11.8019 42.1322 33
    endloop
  endfacet
  facet normal -0.222521 -0.974928 0
    outer loop
      vertex -10.445 44.9499 33
      vertex -8.75302 44.5637 35.5
      vertex -10.445 44.9499 35.5
    endloop
  endfacet
  facet normal -0.222521 -0.974928 -0
    outer loop
      vertex -8.75302 44.5637 35.5
      vertex -10.445 44.9499 33
      vertex -8.75302 44.5637 33
    endloop
  endfacet
  facet normal 0.62349 -0.781831 0
    outer loop
      vertex -11.8019 43.8678 33
      vertex -10.445 44.9499 35.5
      vertex -11.8019 43.8678 35.5
    endloop
  endfacet
  facet normal 0.62349 -0.781831 0
    outer loop
      vertex -10.445 44.9499 35.5
      vertex -11.8019 43.8678 33
      vertex -10.445 44.9499 33
    endloop
  endfacet
  facet normal -0.222521 0.974928 0
    outer loop
      vertex -8.75302 41.4363 33
      vertex -10.445 41.0501 35.5
      vertex -8.75302 41.4363 35.5
    endloop
  endfacet
  facet normal -0.222521 0.974928 0
    outer loop
      vertex -10.445 41.0501 35.5
      vertex -8.75302 41.4363 33
      vertex -10.445 41.0501 33
    endloop
  endfacet
  facet normal 0.62349 0.781831 -0
    outer loop
      vertex -10.445 41.0501 33
      vertex -11.8019 42.1322 35.5
      vertex -10.445 41.0501 35.5
    endloop
  endfacet
  facet normal 0.62349 0.781831 0
    outer loop
      vertex -11.8019 42.1322 35.5
      vertex -10.445 41.0501 33
      vertex -11.8019 42.1322 33
    endloop
  endfacet
  facet normal -0.900969 0.433884 0
    outer loop
      vertex -8.75302 41.4363 33
      vertex -8 43 35.5
      vertex -8 43 33
    endloop
  endfacet
  facet normal -0.900969 0.433884 0
    outer loop
      vertex -8 43 35.5
      vertex -8.75302 41.4363 33
      vertex -8.75302 41.4363 35.5
    endloop
  endfacet
  facet normal 0 0 1
    outer loop
      vertex -8.75302 41.4363 17.5
      vertex -2.25 47 17.5
      vertex -8 43 17.5
    endloop
  endfacet
  facet normal 0 0 1
    outer loop
      vertex -2.25 47 17.5
      vertex -8.75302 44.5637 17.5
      vertex -8 43 17.5
    endloop
  endfacet
  facet normal 0 0 1
    outer loop
      vertex -2.25 47 17.5
      vertex -10.445 44.9499 17.5
      vertex -8.75302 44.5637 17.5
    endloop
  endfacet
  facet normal 0 0 1
    outer loop
      vertex -11.8019 43.8678 17.5
      vertex -16.25 47 17.5
      vertex -11.8019 42.1322 17.5
    endloop
  endfacet
  facet normal 0 0 1
    outer loop
      vertex -10.445 44.9499 17.5
      vertex -16.25 47 17.5
      vertex -11.8019 43.8678 17.5
    endloop
  endfacet
  facet normal -0 0 1
    outer loop
      vertex -16.25 47 17.5
      vertex -10.445 44.9499 17.5
      vertex -2.25 47 17.5
    endloop
  endfacet
  facet normal 0 0 1
    outer loop
      vertex -2.25 47 17.5
      vertex -8.75302 41.4363 17.5
      vertex -2.25 -1 17.5
    endloop
  endfacet
  facet normal -0 0 1
    outer loop
      vertex -10.445 41.0501 17.5
      vertex -2.25 -1 17.5
      vertex -8.75302 41.4363 17.5
    endloop
  endfacet
  facet normal 0 0 1
    outer loop
      vertex -16.25 -1 17.5
      vertex -10.445 41.0501 17.5
      vertex -11.8019 42.1322 17.5
    endloop
  endfacet
  facet normal 0 0 1
    outer loop
      vertex -16.25 -1 17.5
      vertex -11.8019 42.1322 17.5
      vertex -16.25 47 17.5
    endloop
  endfacet
  facet normal 0 0 1
    outer loop
      vertex -10.445 41.0501 17.5
      vertex -16.25 -1 17.5
      vertex -2.25 -1 17.5
    endloop
  endfacet
  facet normal 0 0 -1
    outer loop
      vertex -8.75302 41.4363 15
      vertex -2.25 47 15
      vertex -2.25 -1 15
    endloop
  endfacet
  facet normal 0 0 -1
    outer loop
      vertex -2.25 47 15
      vertex -8.75302 41.4363 15
      vertex -8 43 15
    endloop
  endfacet
  facet normal 0 0 -1
    outer loop
      vertex -2.25 -1 15
      vertex -10.445 41.0501 15
      vertex -8.75302 41.4363 15
    endloop
  endfacet
  facet normal 0 0 -1
    outer loop
      vertex -16.25 -1 15
      vertex -10.445 41.0501 15
      vertex -2.25 -1 15
    endloop
  endfacet
  facet normal 0 0 -1
    outer loop
      vertex -16.25 47 15
      vertex -11.8019 42.1322 15
      vertex -16.25 -1 15
    endloop
  endfacet
  facet normal -0 0 -1
    outer loop
      vertex -10.445 41.0501 15
      vertex -16.25 -1 15
      vertex -11.8019 42.1322 15
    endloop
  endfacet
  facet normal 0 0 -1
    outer loop
      vertex -8.75302 44.5637 15
      vertex -2.25 47 15
      vertex -8 43 15
    endloop
  endfacet
  facet normal 0 0 -1
    outer loop
      vertex -10.445 44.9499 15
      vertex -2.25 47 15
      vertex -8.75302 44.5637 15
    endloop
  endfacet
  facet normal 0 0 -1
    outer loop
      vertex -10.445 44.9499 15
      vertex -16.25 47 15
      vertex -2.25 47 15
    endloop
  endfacet
  facet normal 0 0 -1
    outer loop
      vertex -11.8019 43.8678 15
      vertex -16.25 47 15
      vertex -10.445 44.9499 15
    endloop
  endfacet
  facet normal 0 0 -1
    outer loop
      vertex -11.8019 42.1322 15
      vertex -16.25 47 15
      vertex -11.8019 43.8678 15
    endloop
  endfacet
  facet normal 0 1 -0
    outer loop
      vertex -2.25 47 15
      vertex -16.25 47 17.5
      vertex -2.25 47 17.5
    endloop
  endfacet
  facet normal 0 1 0
    outer loop
      vertex -16.25 47 17.5
      vertex -2.25 47 15
      vertex -16.25 47 15
    endloop
  endfacet
  facet normal -0.900969 -0.433884 0
    outer loop
      vertex -8 43 15
      vertex -8.75302 44.5637 17.5
      vertex -8.75302 44.5637 15
    endloop
  endfacet
  facet normal -0.900969 -0.433884 0
    outer loop
      vertex -8.75302 44.5637 17.5
      vertex -8 43 15
      vertex -8 43 17.5
    endloop
  endfacet
  facet normal 1 -0 0
    outer loop
      vertex -11.8019 42.1322 17.5
      vertex -11.8019 43.8678 15
      vertex -11.8019 43.8678 17.5
    endloop
  endfacet
  facet normal 1 0 0
    outer loop
      vertex -11.8019 43.8678 15
      vertex -11.8019 42.1322 17.5
      vertex -11.8019 42.1322 15
    endloop
  endfacet
  facet normal -0.222521 -0.974928 0
    outer loop
      vertex -10.445 44.9499 15
      vertex -8.75302 44.5637 17.5
      vertex -10.445 44.9499 17.5
    endloop
  endfacet
  facet normal -0.222521 -0.974928 -0
    outer loop
      vertex -8.75302 44.5637 17.5
      vertex -10.445 44.9499 15
      vertex -8.75302 44.5637 15
    endloop
  endfacet
  facet normal 0.62349 -0.781831 0
    outer loop
      vertex -11.8019 43.8678 15
      vertex -10.445 44.9499 17.5
      vertex -11.8019 43.8678 17.5
    endloop
  endfacet
  facet normal 0.62349 -0.781831 0
    outer loop
      vertex -10.445 44.9499 17.5
      vertex -11.8019 43.8678 15
      vertex -10.445 44.9499 15
    endloop
  endfacet
  facet normal -0.900969 0.433884 0
    outer loop
      vertex -8.75302 41.4363 15
      vertex -8 43 17.5
      vertex -8 43 15
    endloop
  endfacet
  facet normal -0.900969 0.433884 0
    outer loop
      vertex -8 43 17.5
      vertex -8.75302 41.4363 15
      vertex -8.75302 41.4363 17.5
    endloop
  endfacet
  facet normal -0.222521 0.974928 0
    outer loop
      vertex -8.75302 41.4363 15
      vertex -10.445 41.0501 17.5
      vertex -8.75302 41.4363 17.5
    endloop
  endfacet
  facet normal -0.222521 0.974928 0
    outer loop
      vertex -10.445 41.0501 17.5
      vertex -8.75302 41.4363 15
      vertex -10.445 41.0501 15
    endloop
  endfacet
  facet normal 0.62349 0.781831 -0
    outer loop
      vertex -10.445 41.0501 15
      vertex -11.8019 42.1322 17.5
      vertex -10.445 41.0501 17.5
    endloop
  endfacet
  facet normal 0.62349 0.781831 0
    outer loop
      vertex -11.8019 42.1322 17.5
      vertex -10.445 41.0501 15
      vertex -11.8019 42.1322 15
    endloop
  endfacet
  facet normal 0 1 -0
    outer loop
      vertex -2.25 -1 17.5
      vertex -16.25 -1 33
      vertex -2.25 -1 33
    endloop
  endfacet
  facet normal 0 1 0
    outer loop
      vertex -16.25 -1 33
      vertex -2.25 -1 17.5
      vertex -16.25 -1 17.5
    endloop
  endfacet
  facet normal 0 1 0
    outer loop
      vertex -2.25 -1 15
      vertex -8.25 -1 10
      vertex -16.25 -1 15
    endloop
  endfacet
  facet normal 0 1 -0
    outer loop
      vertex -2.25 -1 -9
      vertex -8.25 -1 10
      vertex -2.25 -1 15
    endloop
  endfacet
  facet normal 0 1 0
    outer loop
      vertex -8.25 -1 -5
      vertex -2.25 -1 -9
      vertex -10.25 -1 -5
    endloop
  endfacet
  facet normal 0 1 0
    outer loop
      vertex -8.25 -1 10
      vertex -2.25 -1 -9
      vertex -8.25 -1 -5
    endloop
  endfacet
  facet normal 0 1 -0
    outer loop
      vertex -10.25 -1 10
      vertex -16.25 -1 15
      vertex -8.25 -1 10
    endloop
  endfacet
  facet normal 0 1 0
    outer loop
      vertex -16.25 -1 -9
      vertex -10.25 -1 10
      vertex -10.25 -1 -5
    endloop
  endfacet
  facet normal 0 1 0
    outer loop
      vertex -10.25 -1 10
      vertex -16.25 -1 -9
      vertex -16.25 -1 15
    endloop
  endfacet
  facet normal 0 1 0
    outer loop
      vertex -16.25 -1 -9
      vertex -10.25 -1 -5
      vertex -2.25 -1 -9
    endloop
  endfacet
  facet normal 0 0 -1
    outer loop
      vertex -16.25 -3 -9
      vertex -2.25 -1 -9
      vertex -2.25 -3 -9
    endloop
  endfacet
  facet normal -0 0 -1
    outer loop
      vertex -2.25 -1 -9
      vertex -16.25 -3 -9
      vertex -16.25 -1 -9
    endloop
  endfacet
  facet normal 1 -0 0
    outer loop
      vertex -10.25 -3 10
      vertex -10.25 -1 -5
      vertex -10.25 -1 10
    endloop
  endfacet
  facet normal 1 0 0
    outer loop
      vertex -10.25 -1 -5
      vertex -10.25 -3 10
      vertex -10.25 -3 -5
    endloop
  endfacet
  facet normal 0 0 -1
    outer loop
      vertex -10.25 -3 10
      vertex -8.25 -1 10
      vertex -8.25 -3 10
    endloop
  endfacet
  facet normal -0 0 -1
    outer loop
      vertex -8.25 -1 10
      vertex -10.25 -3 10
      vertex -10.25 -1 10
    endloop
  endfacet
  facet normal -1 0 0
    outer loop
      vertex -8.25 -3 -5
      vertex -8.25 -1 10
      vertex -8.25 -1 -5
    endloop
  endfacet
  facet normal -1 -0 0
    outer loop
      vertex -8.25 -1 10
      vertex -8.25 -3 -5
      vertex -8.25 -3 10
    endloop
  endfacet
  facet normal -0 0 1
    outer loop
      vertex -10.25 -1 -5
      vertex -8.25 -3 -5
      vertex -8.25 -1 -5
    endloop
  endfacet
  facet normal 0 0 1
    outer loop
      vertex -8.25 -3 -5
      vertex -10.25 -1 -5
      vertex -10.25 -3 -5
    endloop
  endfacet
endsolid OpenSCAD_Model
