solid OpenSCAD_Model
  facet normal -1 0 0
    outer loop
      vertex 3.75 -2 -1
      vertex 3.75 14 13
      vertex 3.75 14 -1
    endloop
  endfacet
  facet normal -1 -0 0
    outer loop
      vertex 3.75 14 13
      vertex 3.75 -2 -1
      vertex 3.75 -2 13
    endloop
  endfacet
  facet normal -0 0 1
    outer loop
      vertex 3.75 14 13
      vertex 8.75 -2 13
      vertex 8.75 14 13
    endloop
  endfacet
  facet normal 0 0 1
    outer loop
      vertex 8.75 -2 13
      vertex 3.75 14 13
      vertex 3.75 -2 13
    endloop
  endfacet
  facet normal 1 -0 0
    outer loop
      vertex 8.75 -2 13
      vertex 8.75 14 -1
      vertex 8.75 14 13
    endloop
  endfacet
  facet normal 1 0 0
    outer loop
      vertex 8.75 14 -1
      vertex 8.75 -2 13
      vertex 8.75 -2 -1
    endloop
  endfacet
  facet normal 0 1 0
    outer loop
      vertex 8.75 14 13
      vertex 6.63627 14 6.68882
      vertex 3.75 14 13
    endloop
  endfacet
  facet normal 0 1 0
    outer loop
      vertex 8.75 14 13
      vertex 7.5 14 5.5
      vertex 6.63627 14 6.68882
    endloop
  endfacet
  facet normal 0 1 0
    outer loop
      vertex 7.5 14 5.5
      vertex 8.75 14 -1
      vertex 6.63627 14 4.31118
    endloop
  endfacet
  facet normal 0 1 -0
    outer loop
      vertex 8.75 14 -1
      vertex 7.5 14 5.5
      vertex 8.75 14 13
    endloop
  endfacet
  facet normal 0 1 -0
    outer loop
      vertex 5.23873 14 6.23473
      vertex 3.75 14 13
      vertex 6.63627 14 6.68882
    endloop
  endfacet
  facet normal 0 1 0
    outer loop
      vertex 3.75 14 -1
      vertex 5.23873 14 6.23473
      vertex 5.23873 14 4.76527
    endloop
  endfacet
  facet normal 0 1 0
    outer loop
      vertex 3.75 14 -1
      vertex 6.63627 14 4.31118
      vertex 8.75 14 -1
    endloop
  endfacet
  facet normal 0 1 0
    outer loop
      vertex 5.23873 14 6.23473
      vertex 3.75 14 -1
      vertex 3.75 14 13
    endloop
  endfacet
  facet normal 0 1 0
    outer loop
      vertex 6.63627 14 4.31118
      vertex 3.75 14 -1
      vertex 5.23873 14 4.76527
    endloop
  endfacet
  facet normal 0 0 1
    outer loop
      vertex 37.75 17 -1
      vertex 32.75 14 -1
      vertex 37.75 14 -1
    endloop
  endfacet
  facet normal -0 0 1
    outer loop
      vertex 24.5 9 -1
      vertex 32.75 7 -1
      vertex 32.75 14 -1
    endloop
  endfacet
  facet normal -0 0 1
    outer loop
      vertex 24.0418 7.14111 -1
      vertex 32.75 7 -1
      vertex 24.5 9 -1
    endloop
  endfacet
  facet normal 0 0 1
    outer loop
      vertex 32.75 7 -1
      vertex 24.0418 7.14111 -1
      vertex 32.75 3 -1
    endloop
  endfacet
  facet normal 0 0 1
    outer loop
      vertex 32.75 14 -1
      vertex 24.0418 10.8589 -1
      vertex 24.5 9 -1
    endloop
  endfacet
  facet normal 0 0 1
    outer loop
      vertex 20.9821 12.9708 -1
      vertex 32.75 14 -1
      vertex 37.75 17 -1
    endloop
  endfacet
  facet normal 0 0 1
    outer loop
      vertex 32.75 14 -1
      vertex 22.7723 12.2919 -1
      vertex 24.0418 10.8589 -1
    endloop
  endfacet
  facet normal 0 0 1
    outer loop
      vertex 32.75 14 -1
      vertex 20.9821 12.9708 -1
      vertex 22.7723 12.2919 -1
    endloop
  endfacet
  facet normal -0 0 1
    outer loop
      vertex 0.75 17 -1
      vertex 20.9821 12.9708 -1
      vertex 37.75 17 -1
    endloop
  endfacet
  facet normal 0 0 1
    outer loop
      vertex 16.6162 9.95726 -1
      vertex 8.75 14 -1
      vertex 16.6162 8.04274 -1
    endloop
  endfacet
  facet normal 0 0 1
    outer loop
      vertex 17.506 11.6525 -1
      vertex 8.75 14 -1
      vertex 16.6162 9.95726 -1
    endloop
  endfacet
  facet normal 0 0 1
    outer loop
      vertex 19.0816 12.7401 -1
      vertex 8.75 14 -1
      vertex 17.506 11.6525 -1
    endloop
  endfacet
  facet normal -0 -0 1
    outer loop
      vertex 8.75 14 -1
      vertex 20.9821 12.9708 -1
      vertex 0.75 17 -1
    endloop
  endfacet
  facet normal 0 0 1
    outer loop
      vertex 20.9821 12.9708 -1
      vertex 8.75 14 -1
      vertex 19.0816 12.7401 -1
    endloop
  endfacet
  facet normal 0 0 1
    outer loop
      vertex 8.75 14 -1
      vertex 0.75 17 -1
      vertex 3.75 14 -1
    endloop
  endfacet
  facet normal 0 0 1
    outer loop
      vertex 0.75 -2 -1
      vertex 3.75 14 -1
      vertex 0.75 17 -1
    endloop
  endfacet
  facet normal 0 0 1
    outer loop
      vertex 3.75 14 -1
      vertex 0.75 -2 -1
      vertex 3.75 -2 -1
    endloop
  endfacet
  facet normal 0 0 1
    outer loop
      vertex 37.75 7 -1
      vertex 35.75 3 -1
      vertex 37.75 0 -1
    endloop
  endfacet
  facet normal -0 0 1
    outer loop
      vertex 32.75 7 -1
      vertex 35.75 3 -1
      vertex 37.75 7 -1
    endloop
  endfacet
  facet normal 0 0 1
    outer loop
      vertex 35.75 3 -1
      vertex 32.75 7 -1
      vertex 32.75 3 -1
    endloop
  endfacet
  facet normal 0 0 1
    outer loop
      vertex 39.5 0 -1
      vertex 42.5 17 -1
      vertex 39.5 17 -1
    endloop
  endfacet
  facet normal 0 0 1
    outer loop
      vertex 42.5 17 -1
      vertex 39.5 0 -1
      vertex 42.5 -2 -1
    endloop
  endfacet
  facet normal 0 0 1
    outer loop
      vertex 35.75 -2 -1
      vertex 39.5 0 -1
      vertex 37.75 0 -1
    endloop
  endfacet
  facet normal 0 0 1
    outer loop
      vertex 39.5 0 -1
      vertex 35.75 -2 -1
      vertex 42.5 -2 -1
    endloop
  endfacet
  facet normal 0 0 1
    outer loop
      vertex 35.75 -2 -1
      vertex 37.75 0 -1
      vertex 35.75 3 -1
    endloop
  endfacet
  facet normal -0 0 1
    outer loop
      vertex 22.7723 5.70806 -1
      vertex 32.75 3 -1
      vertex 24.0418 7.14111 -1
    endloop
  endfacet
  facet normal 0 0 1
    outer loop
      vertex 32.75 3 -1
      vertex 22.7723 5.70806 -1
      vertex 32.75 -2 -1
    endloop
  endfacet
  facet normal -0 0 1
    outer loop
      vertex 20.9821 5.02916 -1
      vertex 32.75 -2 -1
      vertex 22.7723 5.70806 -1
    endloop
  endfacet
  facet normal 0 0 1
    outer loop
      vertex 8.75 -2 -1
      vertex 20.9821 5.02916 -1
      vertex 19.0816 5.25993 -1
    endloop
  endfacet
  facet normal 0 0 1
    outer loop
      vertex 8.75 -2 -1
      vertex 16.6162 8.04274 -1
      vertex 8.75 14 -1
    endloop
  endfacet
  facet normal 0 0 1
    outer loop
      vertex 20.9821 5.02916 -1
      vertex 8.75 -2 -1
      vertex 32.75 -2 -1
    endloop
  endfacet
  facet normal 0 0 1
    outer loop
      vertex 17.506 6.34751 -1
      vertex 8.75 -2 -1
      vertex 19.0816 5.25993 -1
    endloop
  endfacet
  facet normal 0 0 1
    outer loop
      vertex 16.6162 8.04274 -1
      vertex 8.75 -2 -1
      vertex 17.506 6.34751 -1
    endloop
  endfacet
  facet normal 0 1 -0
    outer loop
      vertex 32.75 -2 -1
      vertex 8.75 -2 13
      vertex 32.75 -2 13
    endloop
  endfacet
  facet normal 0 1 0
    outer loop
      vertex 8.75 -2 13
      vertex 32.75 -2 -1
      vertex 8.75 -2 -1
    endloop
  endfacet
  facet normal 0 1 0
    outer loop
      vertex 32.75 -2 13
      vertex 55.75 -2 23
      vertex 35.75 -2 13
    endloop
  endfacet
  facet normal 0 1 0
    outer loop
      vertex 55.75 -2 23
      vertex 42.5 -2 -1
      vertex 35.75 -2 13
    endloop
  endfacet
  facet normal 0 1 -0
    outer loop
      vertex 55.75 -2 -14
      vertex 42.5 -2 -1
      vertex 55.75 -2 23
    endloop
  endfacet
  facet normal 0 1 0
    outer loop
      vertex 42.5 -2 -4
      vertex 55.75 -2 -14
      vertex 0.75 -2 -4
    endloop
  endfacet
  facet normal 0 1 0
    outer loop
      vertex 42.5 -2 -1
      vertex 55.75 -2 -14
      vertex 42.5 -2 -4
    endloop
  endfacet
  facet normal 0 1 0
    outer loop
      vertex 8.75 -2 13
      vertex 55.75 -2 23
      vertex 32.75 -2 13
    endloop
  endfacet
  facet normal 0 1 0
    outer loop
      vertex 55.75 -2 23
      vertex 8.75 -2 13
      vertex -16.25 -2 23
    endloop
  endfacet
  facet normal 0 1 -0
    outer loop
      vertex 3.75 -2 13
      vertex -16.25 -2 23
      vertex 8.75 -2 13
    endloop
  endfacet
  facet normal 0 1 0
    outer loop
      vertex 0.75 -2 -1
      vertex 3.75 -2 13
      vertex 3.75 -2 -1
    endloop
  endfacet
  facet normal 0 1 0
    outer loop
      vertex 3.75 -2 13
      vertex 0.75 -2 -1
      vertex -16.25 -2 23
    endloop
  endfacet
  facet normal 0 1 0
    outer loop
      vertex -16.25 -2 -14
      vertex 0.75 -2 -1
      vertex 0.75 -2 -4
    endloop
  endfacet
  facet normal 0 1 0
    outer loop
      vertex 0.75 -2 -1
      vertex -16.25 -2 -14
      vertex -16.25 -2 23
    endloop
  endfacet
  facet normal 0 1 0
    outer loop
      vertex -16.25 -2 -14
      vertex 0.75 -2 -4
      vertex 55.75 -2 -14
    endloop
  endfacet
  facet normal 0 1 0
    outer loop
      vertex 35.75 -2 13
      vertex 42.5 -2 -1
      vertex 35.75 -2 -1
    endloop
  endfacet
  facet normal -0.809017 0 -0.587786
    outer loop
      vertex 7.5 6 5.5
      vertex 6.63627 14 6.68882
      vertex 7.5 14 5.5
    endloop
  endfacet
  facet normal -0.809017 -0 -0.587786
    outer loop
      vertex 6.63627 14 6.68882
      vertex 7.5 6 5.5
      vertex 6.63627 6 6.68882
    endloop
  endfacet
  facet normal 0.309017 0 -0.951056
    outer loop
      vertex 5.23873 6 6.23473
      vertex 6.63627 14 6.68882
      vertex 6.63627 6 6.68882
    endloop
  endfacet
  facet normal 0.309017 0 -0.951056
    outer loop
      vertex 6.63627 14 6.68882
      vertex 5.23873 6 6.23473
      vertex 5.23873 14 6.23473
    endloop
  endfacet
  facet normal 1 -0 0
    outer loop
      vertex 5.23873 6 6.23473
      vertex 5.23873 14 4.76527
      vertex 5.23873 14 6.23473
    endloop
  endfacet
  facet normal 1 0 0
    outer loop
      vertex 5.23873 14 4.76527
      vertex 5.23873 6 6.23473
      vertex 5.23873 6 4.76527
    endloop
  endfacet
  facet normal 0.309017 0 0.951056
    outer loop
      vertex 5.23873 14 4.76527
      vertex 6.63627 6 4.31118
      vertex 6.63627 14 4.31118
    endloop
  endfacet
  facet normal 0.309017 0 0.951056
    outer loop
      vertex 6.63627 6 4.31118
      vertex 5.23873 14 4.76527
      vertex 5.23873 6 4.76527
    endloop
  endfacet
  facet normal 0 1 0
    outer loop
      vertex 7.5 6 5.5
      vertex 5.23873 6 6.23473
      vertex 6.63627 6 6.68882
    endloop
  endfacet
  facet normal 0 1 0
    outer loop
      vertex 7.5 6 5.5
      vertex 5.23873 6 4.76527
      vertex 5.23873 6 6.23473
    endloop
  endfacet
  facet normal -0 1 0
    outer loop
      vertex 5.23873 6 4.76527
      vertex 7.5 6 5.5
      vertex 6.63627 6 4.31118
    endloop
  endfacet
  facet normal -0.809017 0 0.587786
    outer loop
      vertex 6.63627 6 4.31118
      vertex 7.5 14 5.5
      vertex 6.63627 14 4.31118
    endloop
  endfacet
  facet normal -0.809017 0 0.587786
    outer loop
      vertex 7.5 14 5.5
      vertex 6.63627 6 4.31118
      vertex 7.5 6 5.5
    endloop
  endfacet
  facet normal -1 0 0
    outer loop
      vertex 32.75 7 -1
      vertex 32.75 14 13
      vertex 32.75 14 -1
    endloop
  endfacet
  facet normal -1 -0 0
    outer loop
      vertex 32.75 14 13
      vertex 32.75 7 -1
      vertex 32.75 7 13
    endloop
  endfacet
  facet normal -0 0 1
    outer loop
      vertex 32.75 14 13
      vertex 37.75 7 13
      vertex 37.75 14 13
    endloop
  endfacet
  facet normal 0 0 1
    outer loop
      vertex 37.75 7 13
      vertex 32.75 14 13
      vertex 32.75 7 13
    endloop
  endfacet
  facet normal 1 0 0
    outer loop
      vertex 37.75 14 13
      vertex 37.75 7 13
      vertex 37.75 14 -1
    endloop
  endfacet
  facet normal 1 -0 0
    outer loop
      vertex 37.75 14 -1
      vertex 37.75 17 -4
      vertex 37.75 17 -1
    endloop
  endfacet
  facet normal 1 0 0
    outer loop
      vertex 37.75 7 -1
      vertex 37.75 14 -1
      vertex 37.75 7 13
    endloop
  endfacet
  facet normal 1 -0 0
    outer loop
      vertex 37.75 7 -1
      vertex 37.75 17 -4
      vertex 37.75 14 -1
    endloop
  endfacet
  facet normal 1 0 0
    outer loop
      vertex 37.75 0 -4
      vertex 37.75 7 -1
      vertex 37.75 0 -1
    endloop
  endfacet
  facet normal 1 0 0
    outer loop
      vertex 37.75 7 -1
      vertex 37.75 0 -4
      vertex 37.75 17 -4
    endloop
  endfacet
  facet normal 0 -1 0
    outer loop
      vertex 32.75 7 13
      vertex 35.3863 7 6.68882
      vertex 37.75 7 13
    endloop
  endfacet
  facet normal 0 -1 0
    outer loop
      vertex 32.75 7 13
      vertex 33.9887 7 6.23473
      vertex 35.3863 7 6.68882
    endloop
  endfacet
  facet normal 0 -1 0
    outer loop
      vertex 32.75 7 -1
      vertex 33.9887 7 6.23473
      vertex 32.75 7 13
    endloop
  endfacet
  facet normal 0 -1 -0
    outer loop
      vertex 33.9887 7 4.76527
      vertex 32.75 7 -1
      vertex 35.3863 7 4.31118
    endloop
  endfacet
  facet normal 0 -1 -0
    outer loop
      vertex 33.9887 7 6.23473
      vertex 32.75 7 -1
      vertex 33.9887 7 4.76527
    endloop
  endfacet
  facet normal 0 -1 0
    outer loop
      vertex 36.25 7 5.5
      vertex 37.75 7 13
      vertex 35.3863 7 6.68882
    endloop
  endfacet
  facet normal 0 -1 0
    outer loop
      vertex 37.75 7 -1
      vertex 35.3863 7 4.31118
      vertex 32.75 7 -1
    endloop
  endfacet
  facet normal 0 -1 0
    outer loop
      vertex 36.25 7 5.5
      vertex 37.75 7 -1
      vertex 37.75 7 13
    endloop
  endfacet
  facet normal 0 -1 0
    outer loop
      vertex 35.3863 7 4.31118
      vertex 37.75 7 -1
      vertex 36.25 7 5.5
    endloop
  endfacet
  facet normal 0 1 0
    outer loop
      vertex 37.75 14 13
      vertex 35.3863 14 6.68882
      vertex 32.75 14 13
    endloop
  endfacet
  facet normal 0 1 0
    outer loop
      vertex 37.75 14 13
      vertex 36.25 14 5.5
      vertex 35.3863 14 6.68882
    endloop
  endfacet
  facet normal 0 1 0
    outer loop
      vertex 36.25 14 5.5
      vertex 37.75 14 -1
      vertex 35.3863 14 4.31118
    endloop
  endfacet
  facet normal 0 1 -0
    outer loop
      vertex 37.75 14 -1
      vertex 36.25 14 5.5
      vertex 37.75 14 13
    endloop
  endfacet
  facet normal 0 1 -0
    outer loop
      vertex 33.9887 14 6.23473
      vertex 32.75 14 13
      vertex 35.3863 14 6.68882
    endloop
  endfacet
  facet normal 0 1 0
    outer loop
      vertex 32.75 14 -1
      vertex 33.9887 14 6.23473
      vertex 33.9887 14 4.76527
    endloop
  endfacet
  facet normal 0 1 0
    outer loop
      vertex 32.75 14 -1
      vertex 35.3863 14 4.31118
      vertex 37.75 14 -1
    endloop
  endfacet
  facet normal 0 1 0
    outer loop
      vertex 33.9887 14 6.23473
      vertex 32.75 14 -1
      vertex 32.75 14 13
    endloop
  endfacet
  facet normal 0 1 0
    outer loop
      vertex 35.3863 14 4.31118
      vertex 32.75 14 -1
      vertex 33.9887 14 4.76527
    endloop
  endfacet
  facet normal -0.809016 0 -0.587787
    outer loop
      vertex 36.25 7 5.5
      vertex 35.3863 14 6.68882
      vertex 36.25 14 5.5
    endloop
  endfacet
  facet normal -0.809016 -0 -0.587787
    outer loop
      vertex 35.3863 14 6.68882
      vertex 36.25 7 5.5
      vertex 35.3863 7 6.68882
    endloop
  endfacet
  facet normal 0.309017 0 -0.951056
    outer loop
      vertex 33.9887 7 6.23473
      vertex 35.3863 14 6.68882
      vertex 35.3863 7 6.68882
    endloop
  endfacet
  facet normal 0.309017 0 -0.951056
    outer loop
      vertex 35.3863 14 6.68882
      vertex 33.9887 7 6.23473
      vertex 33.9887 14 6.23473
    endloop
  endfacet
  facet normal 1 -0 0
    outer loop
      vertex 33.9887 7 6.23473
      vertex 33.9887 14 4.76527
      vertex 33.9887 14 6.23473
    endloop
  endfacet
  facet normal 1 0 0
    outer loop
      vertex 33.9887 14 4.76527
      vertex 33.9887 7 6.23473
      vertex 33.9887 7 4.76527
    endloop
  endfacet
  facet normal 0.309017 0 0.951056
    outer loop
      vertex 33.9887 14 4.76527
      vertex 35.3863 7 4.31118
      vertex 35.3863 14 4.31118
    endloop
  endfacet
  facet normal 0.309017 0 0.951056
    outer loop
      vertex 35.3863 7 4.31118
      vertex 33.9887 14 4.76527
      vertex 33.9887 7 4.76527
    endloop
  endfacet
  facet normal -0.809016 0 0.587786
    outer loop
      vertex 35.3863 7 4.31118
      vertex 36.25 14 5.5
      vertex 35.3863 14 4.31118
    endloop
  endfacet
  facet normal -0.809016 0 0.587786
    outer loop
      vertex 36.25 14 5.5
      vertex 35.3863 7 4.31118
      vertex 36.25 7 5.5
    endloop
  endfacet
  facet normal -1 0 0
    outer loop
      vertex 0.75 -2 -4
      vertex 0.75 17 -1
      vertex 0.75 17 -4
    endloop
  endfacet
  facet normal -1 -0 0
    outer loop
      vertex 0.75 17 -1
      vertex 0.75 -2 -4
      vertex 0.75 -2 -1
    endloop
  endfacet
  facet normal 0 0 -1
    outer loop
      vertex 42.5 -2 -4
      vertex 39.5 0 -4
      vertex 42.5 17 -4
    endloop
  endfacet
  facet normal 0 0 -1
    outer loop
      vertex 42.5 -2 -4
      vertex 37.75 0 -4
      vertex 39.5 0 -4
    endloop
  endfacet
  facet normal 0 0 -1
    outer loop
      vertex 37.75 0 -4
      vertex 21.75 9 -4
      vertex 37.75 17 -4
    endloop
  endfacet
  facet normal 0 0 -1
    outer loop
      vertex 37.75 0 -4
      vertex 20.8863 7.81118 -4
      vertex 21.75 9 -4
    endloop
  endfacet
  facet normal 0 0 -1
    outer loop
      vertex 0.75 -2 -4
      vertex 20.8863 7.81118 -4
      vertex 37.75 0 -4
    endloop
  endfacet
  facet normal 0 0 -1
    outer loop
      vertex 0.75 17 -4
      vertex 19.4887 8.26527 -4
      vertex 0.75 -2 -4
    endloop
  endfacet
  facet normal -0 0 -1
    outer loop
      vertex 20.8863 7.81118 -4
      vertex 0.75 -2 -4
      vertex 19.4887 8.26527 -4
    endloop
  endfacet
  facet normal 0 0 -1
    outer loop
      vertex 0.75 -2 -4
      vertex 37.75 0 -4
      vertex 42.5 -2 -4
    endloop
  endfacet
  facet normal -0 0 -1
    outer loop
      vertex 42.5 17 -4
      vertex 39.5 0 -4
      vertex 39.5 17 -4
    endloop
  endfacet
  facet normal 0 0 -1
    outer loop
      vertex 20.8863 10.1888 -4
      vertex 37.75 17 -4
      vertex 21.75 9 -4
    endloop
  endfacet
  facet normal 0 0 -1
    outer loop
      vertex 0.75 17 -4
      vertex 20.8863 10.1888 -4
      vertex 19.4887 9.73473 -4
    endloop
  endfacet
  facet normal 0 0 -1
    outer loop
      vertex 20.8863 10.1888 -4
      vertex 0.75 17 -4
      vertex 37.75 17 -4
    endloop
  endfacet
  facet normal 0 0 -1
    outer loop
      vertex 19.4887 8.26527 -4
      vertex 0.75 17 -4
      vertex 19.4887 9.73473 -4
    endloop
  endfacet
  facet normal 0 -1 0
    outer loop
      vertex -16.25 -3 -14
      vertex 55.75 -3 23
      vertex -16.25 -3 23
    endloop
  endfacet
  facet normal 0 -1 -0
    outer loop
      vertex 55.75 -3 23
      vertex -16.25 -3 -14
      vertex 55.75 -3 -14
    endloop
  endfacet
  facet normal 0 1 -0
    outer loop
      vertex 37.75 17 -4
      vertex 0.75 17 -1
      vertex 37.75 17 -1
    endloop
  endfacet
  facet normal 0 1 0
    outer loop
      vertex 0.75 17 -1
      vertex 37.75 17 -4
      vertex 0.75 17 -4
    endloop
  endfacet
  facet normal -0.809017 -0.587786 0
    outer loop
      vertex 21.75 9 -4
      vertex 20.8863 10.1888 -2.75
      vertex 20.8863 10.1888 -4
    endloop
  endfacet
  facet normal -0.809017 -0.587786 0
    outer loop
      vertex 20.8863 10.1888 -2.75
      vertex 21.75 9 -4
      vertex 21.75 9 -2.75
    endloop
  endfacet
  facet normal 1 -0 0
    outer loop
      vertex 19.4887 8.26527 -2.75
      vertex 19.4887 9.73473 -4
      vertex 19.4887 9.73473 -2.75
    endloop
  endfacet
  facet normal 1 0 0
    outer loop
      vertex 19.4887 9.73473 -4
      vertex 19.4887 8.26527 -2.75
      vertex 19.4887 8.26527 -4
    endloop
  endfacet
  facet normal 0.309017 -0.951057 0
    outer loop
      vertex 19.4887 9.73473 -4
      vertex 20.8863 10.1888 -2.75
      vertex 19.4887 9.73473 -2.75
    endloop
  endfacet
  facet normal 0.309017 -0.951057 0
    outer loop
      vertex 20.8863 10.1888 -2.75
      vertex 19.4887 9.73473 -4
      vertex 20.8863 10.1888 -4
    endloop
  endfacet
  facet normal -0.809017 0.587786 0
    outer loop
      vertex 20.8863 7.81118 -4
      vertex 21.75 9 -2.75
      vertex 21.75 9 -4
    endloop
  endfacet
  facet normal -0.809017 0.587786 0
    outer loop
      vertex 21.75 9 -2.75
      vertex 20.8863 7.81118 -4
      vertex 20.8863 7.81118 -2.75
    endloop
  endfacet
  facet normal 0.309017 0.951057 -0
    outer loop
      vertex 20.8863 7.81118 -4
      vertex 19.4887 8.26527 -2.75
      vertex 20.8863 7.81118 -2.75
    endloop
  endfacet
  facet normal 0.309017 0.951057 0
    outer loop
      vertex 19.4887 8.26527 -2.75
      vertex 20.8863 7.81118 -4
      vertex 19.4887 8.26527 -4
    endloop
  endfacet
  facet normal -0.970942 -0.239316 0
    outer loop
      vertex 24.5 9 -2.75
      vertex 24.0418 10.8589 -1
      vertex 24.0418 10.8589 -2.75
    endloop
  endfacet
  facet normal -0.970942 -0.239316 0
    outer loop
      vertex 24.0418 10.8589 -1
      vertex 24.5 9 -2.75
      vertex 24.5 9 -1
    endloop
  endfacet
  facet normal 1 -0 0
    outer loop
      vertex 16.6162 8.04274 -1
      vertex 16.6162 9.95726 -2.75
      vertex 16.6162 9.95726 -1
    endloop
  endfacet
  facet normal 1 0 0
    outer loop
      vertex 16.6162 9.95726 -2.75
      vertex 16.6162 8.04274 -1
      vertex 16.6162 8.04274 -2.75
    endloop
  endfacet
  facet normal 0.120536 -0.992709 0
    outer loop
      vertex 19.0816 12.7401 -2.75
      vertex 20.9821 12.9708 -1
      vertex 19.0816 12.7401 -1
    endloop
  endfacet
  facet normal 0.120536 -0.992709 0
    outer loop
      vertex 20.9821 12.9708 -1
      vertex 19.0816 12.7401 -2.75
      vertex 20.9821 12.9708 -2.75
    endloop
  endfacet
  facet normal -0.748511 -0.663123 0
    outer loop
      vertex 24.0418 10.8589 -2.75
      vertex 22.7723 12.2919 -1
      vertex 22.7723 12.2919 -2.75
    endloop
  endfacet
  facet normal -0.748511 -0.663123 0
    outer loop
      vertex 22.7723 12.2919 -1
      vertex 24.0418 10.8589 -2.75
      vertex 24.0418 10.8589 -1
    endloop
  endfacet
  facet normal 0.568064 -0.822984 0
    outer loop
      vertex 17.506 11.6525 -2.75
      vertex 19.0816 12.7401 -1
      vertex 17.506 11.6525 -1
    endloop
  endfacet
  facet normal 0.568064 -0.822984 0
    outer loop
      vertex 19.0816 12.7401 -1
      vertex 17.506 11.6525 -2.75
      vertex 19.0816 12.7401 -2.75
    endloop
  endfacet
  facet normal -0.970942 0.239315 0
    outer loop
      vertex 24.0418 7.14111 -2.75
      vertex 24.5 9 -1
      vertex 24.5 9 -2.75
    endloop
  endfacet
  facet normal -0.970942 0.239315 0
    outer loop
      vertex 24.5 9 -1
      vertex 24.0418 7.14111 -2.75
      vertex 24.0418 7.14111 -1
    endloop
  endfacet
  facet normal -0.354605 -0.935016 0
    outer loop
      vertex 20.9821 12.9708 -2.75
      vertex 22.7723 12.2919 -1
      vertex 20.9821 12.9708 -1
    endloop
  endfacet
  facet normal -0.354605 -0.935016 -0
    outer loop
      vertex 22.7723 12.2919 -1
      vertex 20.9821 12.9708 -2.75
      vertex 22.7723 12.2919 -2.75
    endloop
  endfacet
  facet normal 0.885456 0.464723 0
    outer loop
      vertex 17.506 6.34751 -1
      vertex 16.6162 8.04274 -2.75
      vertex 16.6162 8.04274 -1
    endloop
  endfacet
  facet normal 0.885456 0.464723 0
    outer loop
      vertex 16.6162 8.04274 -2.75
      vertex 17.506 6.34751 -1
      vertex 17.506 6.34751 -2.75
    endloop
  endfacet
  facet normal -0.748511 0.663123 0
    outer loop
      vertex 22.7723 5.70806 -2.75
      vertex 24.0418 7.14111 -1
      vertex 24.0418 7.14111 -2.75
    endloop
  endfacet
  facet normal -0.748511 0.663123 0
    outer loop
      vertex 24.0418 7.14111 -1
      vertex 22.7723 5.70806 -2.75
      vertex 22.7723 5.70806 -1
    endloop
  endfacet
  facet normal 0.885456 -0.464723 0
    outer loop
      vertex 16.6162 9.95726 -1
      vertex 17.506 11.6525 -2.75
      vertex 17.506 11.6525 -1
    endloop
  endfacet
  facet normal 0.885456 -0.464723 0
    outer loop
      vertex 17.506 11.6525 -2.75
      vertex 16.6162 9.95726 -1
      vertex 16.6162 9.95726 -2.75
    endloop
  endfacet
  facet normal 0 0 1
    outer loop
      vertex 21.75 9 -2.75
      vertex 24.5 9 -2.75
      vertex 24.0418 10.8589 -2.75
    endloop
  endfacet
  facet normal 0 0 1
    outer loop
      vertex 20.8863 10.1888 -2.75
      vertex 24.0418 10.8589 -2.75
      vertex 22.7723 12.2919 -2.75
    endloop
  endfacet
  facet normal 0 0 1
    outer loop
      vertex 24.5 9 -2.75
      vertex 21.75 9 -2.75
      vertex 24.0418 7.14111 -2.75
    endloop
  endfacet
  facet normal -0 0 1
    outer loop
      vertex 20.8863 7.81118 -2.75
      vertex 24.0418 7.14111 -2.75
      vertex 21.75 9 -2.75
    endloop
  endfacet
  facet normal 0 0 1
    outer loop
      vertex 20.8863 10.1888 -2.75
      vertex 22.7723 12.2919 -2.75
      vertex 20.9821 12.9708 -2.75
    endloop
  endfacet
  facet normal 0 0 1
    outer loop
      vertex 24.0418 10.8589 -2.75
      vertex 20.8863 10.1888 -2.75
      vertex 21.75 9 -2.75
    endloop
  endfacet
  facet normal -0 0 1
    outer loop
      vertex 19.0816 12.7401 -2.75
      vertex 20.8863 10.1888 -2.75
      vertex 20.9821 12.9708 -2.75
    endloop
  endfacet
  facet normal -0 0 1
    outer loop
      vertex 17.506 11.6525 -2.75
      vertex 19.4887 9.73473 -2.75
      vertex 19.0816 12.7401 -2.75
    endloop
  endfacet
  facet normal 0 0 1
    outer loop
      vertex 20.8863 10.1888 -2.75
      vertex 19.0816 12.7401 -2.75
      vertex 19.4887 9.73473 -2.75
    endloop
  endfacet
  facet normal 0 0 1
    outer loop
      vertex 24.0418 7.14111 -2.75
      vertex 20.8863 7.81118 -2.75
      vertex 22.7723 5.70806 -2.75
    endloop
  endfacet
  facet normal 0 0 1
    outer loop
      vertex 22.7723 5.70806 -2.75
      vertex 20.8863 7.81118 -2.75
      vertex 20.9821 5.02916 -2.75
    endloop
  endfacet
  facet normal 0 0 1
    outer loop
      vertex 19.0816 5.25993 -2.75
      vertex 20.8863 7.81118 -2.75
      vertex 19.4887 8.26527 -2.75
    endloop
  endfacet
  facet normal 0 0 1
    outer loop
      vertex 20.8863 7.81118 -2.75
      vertex 19.0816 5.25993 -2.75
      vertex 20.9821 5.02916 -2.75
    endloop
  endfacet
  facet normal -0 0 1
    outer loop
      vertex 16.6162 9.95726 -2.75
      vertex 19.4887 9.73473 -2.75
      vertex 17.506 11.6525 -2.75
    endloop
  endfacet
  facet normal 0 0 1
    outer loop
      vertex 19.4887 9.73473 -2.75
      vertex 16.6162 9.95726 -2.75
      vertex 19.4887 8.26527 -2.75
    endloop
  endfacet
  facet normal 0 0 1
    outer loop
      vertex 19.4887 8.26527 -2.75
      vertex 17.506 6.34751 -2.75
      vertex 19.0816 5.25993 -2.75
    endloop
  endfacet
  facet normal 0 0 1
    outer loop
      vertex 16.6162 8.04274 -2.75
      vertex 19.4887 8.26527 -2.75
      vertex 16.6162 9.95726 -2.75
    endloop
  endfacet
  facet normal 0 0 1
    outer loop
      vertex 19.4887 8.26527 -2.75
      vertex 16.6162 8.04274 -2.75
      vertex 17.506 6.34751 -2.75
    endloop
  endfacet
  facet normal 0.568064 0.822984 -0
    outer loop
      vertex 19.0816 5.25993 -2.75
      vertex 17.506 6.34751 -1
      vertex 19.0816 5.25993 -1
    endloop
  endfacet
  facet normal 0.568064 0.822984 0
    outer loop
      vertex 17.506 6.34751 -1
      vertex 19.0816 5.25993 -2.75
      vertex 17.506 6.34751 -2.75
    endloop
  endfacet
  facet normal -0.354605 0.935016 0
    outer loop
      vertex 22.7723 5.70806 -2.75
      vertex 20.9821 5.02916 -1
      vertex 22.7723 5.70806 -1
    endloop
  endfacet
  facet normal -0.354605 0.935016 0
    outer loop
      vertex 20.9821 5.02916 -1
      vertex 22.7723 5.70806 -2.75
      vertex 20.9821 5.02916 -2.75
    endloop
  endfacet
  facet normal 0.120536 0.992709 -0
    outer loop
      vertex 20.9821 5.02916 -2.75
      vertex 19.0816 5.25993 -1
      vertex 20.9821 5.02916 -1
    endloop
  endfacet
  facet normal 0.120536 0.992709 0
    outer loop
      vertex 19.0816 5.25993 -1
      vertex 20.9821 5.02916 -2.75
      vertex 19.0816 5.25993 -2.75
    endloop
  endfacet
  facet normal -1 0 0
    outer loop
      vertex 32.75 -2 -1
      vertex 32.75 3 13
      vertex 32.75 3 -1
    endloop
  endfacet
  facet normal -1 -0 0
    outer loop
      vertex 32.75 3 13
      vertex 32.75 -2 -1
      vertex 32.75 -2 13
    endloop
  endfacet
  facet normal -0 0 1
    outer loop
      vertex 32.75 3 13
      vertex 35.75 -2 13
      vertex 35.75 3 13
    endloop
  endfacet
  facet normal 0 0 1
    outer loop
      vertex 35.75 -2 13
      vertex 32.75 3 13
      vertex 32.75 -2 13
    endloop
  endfacet
  facet normal 1 -0 0
    outer loop
      vertex 35.75 -2 13
      vertex 35.75 3 -1
      vertex 35.75 3 13
    endloop
  endfacet
  facet normal 1 0 0
    outer loop
      vertex 35.75 3 -1
      vertex 35.75 -2 13
      vertex 35.75 -2 -1
    endloop
  endfacet
  facet normal 0 1 -0
    outer loop
      vertex 35.75 3 -1
      vertex 32.75 3 13
      vertex 35.75 3 13
    endloop
  endfacet
  facet normal 0 1 0
    outer loop
      vertex 32.75 3 13
      vertex 35.75 3 -1
      vertex 32.75 3 -1
    endloop
  endfacet
  facet normal -1 0 0
    outer loop
      vertex -16.25 -3 -14
      vertex -16.25 -2 23
      vertex -16.25 -2 -14
    endloop
  endfacet
  facet normal -1 -0 0
    outer loop
      vertex -16.25 -2 23
      vertex -16.25 -3 -14
      vertex -16.25 -3 23
    endloop
  endfacet
  facet normal -0 0 1
    outer loop
      vertex -16.25 -2 23
      vertex 55.75 -3 23
      vertex 55.75 -2 23
    endloop
  endfacet
  facet normal 0 0 1
    outer loop
      vertex 55.75 -3 23
      vertex -16.25 -2 23
      vertex -16.25 -3 23
    endloop
  endfacet
  facet normal 1 -0 0
    outer loop
      vertex 55.75 -3 23
      vertex 55.75 -2 -14
      vertex 55.75 -2 23
    endloop
  endfacet
  facet normal 1 0 0
    outer loop
      vertex 55.75 -2 -14
      vertex 55.75 -3 23
      vertex 55.75 -3 -14
    endloop
  endfacet
  facet normal 0 0 -1
    outer loop
      vertex -16.25 -3 -14
      vertex 55.75 -2 -14
      vertex 55.75 -3 -14
    endloop
  endfacet
  facet normal -0 0 -1
    outer loop
      vertex 55.75 -2 -14
      vertex -16.25 -3 -14
      vertex -16.25 -2 -14
    endloop
  endfacet
  facet normal -1 0 0
    outer loop
      vertex 39.5 0 -4
      vertex 39.5 17 -1
      vertex 39.5 17 -4
    endloop
  endfacet
  facet normal -1 -0 0
    outer loop
      vertex 39.5 17 -1
      vertex 39.5 0 -4
      vertex 39.5 0 -1
    endloop
  endfacet
  facet normal 1 -0 0
    outer loop
      vertex 42.5 -2 -1
      vertex 42.5 17 -4
      vertex 42.5 17 -1
    endloop
  endfacet
  facet normal 1 0 0
    outer loop
      vertex 42.5 17 -4
      vertex 42.5 -2 -1
      vertex 42.5 -2 -4
    endloop
  endfacet
  facet normal 0 1 -0
    outer loop
      vertex 42.5 17 -4
      vertex 39.5 17 -1
      vertex 42.5 17 -1
    endloop
  endfacet
  facet normal 0 1 0
    outer loop
      vertex 39.5 17 -1
      vertex 42.5 17 -4
      vertex 39.5 17 -4
    endloop
  endfacet
  facet normal 0 1 -0
    outer loop
      vertex 39.5 0 -4
      vertex 37.75 0 -1
      vertex 39.5 0 -1
    endloop
  endfacet
  facet normal 0 1 0
    outer loop
      vertex 37.75 0 -1
      vertex 39.5 0 -4
      vertex 37.75 0 -4
    endloop
  endfacet
endsolid OpenSCAD_Model
