solid OpenSCAD_Model
  facet normal -1 0 0
    outer loop
      vertex 0.75 60 -7
      vertex 0.75 63 -27
      vertex 0.75 60 -27
    endloop
  endfacet
  facet normal -1 0 0
    outer loop
      vertex 0.75 63 -27
      vertex 0.75 60 -7
      vertex 0.75 63 23
    endloop
  endfacet
  facet normal -1 0 0
    outer loop
      vertex 0.75 60 3
      vertex 0.75 63 23
      vertex 0.75 60 -7
    endloop
  endfacet
  facet normal -1 -0 0
    outer loop
      vertex 0.75 63 23
      vertex 0.75 60 3
      vertex 0.75 60 23
    endloop
  endfacet
  facet normal -1 0 0
    outer loop
      vertex 0.75 -3 -4
      vertex 0.75 50 -1
      vertex 0.75 50 -4
    endloop
  endfacet
  facet normal -1 -0 0
    outer loop
      vertex 0.75 50 -1
      vertex 0.75 -3 -4
      vertex 0.75 -3 -1
    endloop
  endfacet
  facet normal -0 0 1
    outer loop
      vertex 24.0418 10.8589 -1
      vertex 37.75 -3 -1
      vertex 37.75 60 -1
    endloop
  endfacet
  facet normal 0 0 1
    outer loop
      vertex 37.75 -3 -1
      vertex 24.0418 10.8589 -1
      vertex 24.5 9 -1
    endloop
  endfacet
  facet normal 0 0 1
    outer loop
      vertex 37.75 60 -1
      vertex 22.7723 12.2919 -1
      vertex 24.0418 10.8589 -1
    endloop
  endfacet
  facet normal -0 0 1
    outer loop
      vertex 15.5 50 -1
      vertex 22.7723 12.2919 -1
      vertex 37.75 60 -1
    endloop
  endfacet
  facet normal 0 0 1
    outer loop
      vertex 22.7723 12.2919 -1
      vertex 15.5 50 -1
      vertex 20.9821 12.9708 -1
    endloop
  endfacet
  facet normal 0 0 1
    outer loop
      vertex 20.9821 12.9708 -1
      vertex 15.5 50 -1
      vertex 19.0816 12.7401 -1
    endloop
  endfacet
  facet normal -0 0 1
    outer loop
      vertex 0.75 50 -1
      vertex 19.0816 12.7401 -1
      vertex 15.5 50 -1
    endloop
  endfacet
  facet normal 0 0 1
    outer loop
      vertex 16 52.2983 -1
      vertex 37.75 60 -1
      vertex 16 53.0788 -1
    endloop
  endfacet
  facet normal 0 0 1
    outer loop
      vertex 16 53.0788 -1
      vertex 37.75 60 -1
      vertex 16 58.133 -1
    endloop
  endfacet
  facet normal -0 0 1
    outer loop
      vertex 15.5 60 -1
      vertex 16 58.133 -1
      vertex 37.75 60 -1
    endloop
  endfacet
  facet normal 0 0 1
    outer loop
      vertex 16 58.133 -1
      vertex 15.5 60 -1
      vertex 15.5 58.133 -1
    endloop
  endfacet
  facet normal -0 0 1
    outer loop
      vertex 24.0418 7.14111 -1
      vertex 37.75 -3 -1
      vertex 24.5 9 -1
    endloop
  endfacet
  facet normal -0 0 1
    outer loop
      vertex 22.7723 5.70806 -1
      vertex 37.75 -3 -1
      vertex 24.0418 7.14111 -1
    endloop
  endfacet
  facet normal -0 0 1
    outer loop
      vertex 20.9821 5.02916 -1
      vertex 37.75 -3 -1
      vertex 22.7723 5.70806 -1
    endloop
  endfacet
  facet normal 0 0 1
    outer loop
      vertex 0.75 -3 -1
      vertex 20.9821 5.02916 -1
      vertex 19.0816 5.25993 -1
    endloop
  endfacet
  facet normal 0 0 1
    outer loop
      vertex 16 51.8114 -1
      vertex 37.75 60 -1
      vertex 16 52.2983 -1
    endloop
  endfacet
  facet normal 0 0 1
    outer loop
      vertex 15.5 50 -1
      vertex 37.75 60 -1
      vertex 16 51.8114 -1
    endloop
  endfacet
  facet normal 0 0 1
    outer loop
      vertex 19.0816 12.7401 -1
      vertex 0.75 50 -1
      vertex 17.506 11.6525 -1
    endloop
  endfacet
  facet normal 0 0 1
    outer loop
      vertex 15.5 50 -1
      vertex 16 51.8114 -1
      vertex 15.5 51.8114 -1
    endloop
  endfacet
  facet normal 0 0 1
    outer loop
      vertex 17.506 11.6525 -1
      vertex 0.75 50 -1
      vertex 16.6162 9.95726 -1
    endloop
  endfacet
  facet normal 0 0 1
    outer loop
      vertex 0.75 -3 -1
      vertex 16.6162 9.95726 -1
      vertex 0.75 50 -1
    endloop
  endfacet
  facet normal 0 0 1
    outer loop
      vertex 20.9821 5.02916 -1
      vertex 0.75 -3 -1
      vertex 37.75 -3 -1
    endloop
  endfacet
  facet normal 0 0 1
    outer loop
      vertex 17.506 6.34751 -1
      vertex 0.75 -3 -1
      vertex 19.0816 5.25993 -1
    endloop
  endfacet
  facet normal 0 0 1
    outer loop
      vertex 16.6162 8.04274 -1
      vertex 0.75 -3 -1
      vertex 17.506 6.34751 -1
    endloop
  endfacet
  facet normal 0 0 1
    outer loop
      vertex 16.6162 9.95726 -1
      vertex 0.75 -3 -1
      vertex 16.6162 8.04274 -1
    endloop
  endfacet
  facet normal 1 0 0
    outer loop
      vertex 37.75 60 -1
      vertex 37.75 21 -4
      vertex 37.75 60 -4
    endloop
  endfacet
  facet normal 1 0 0
    outer loop
      vertex 37.75 21 -4
      vertex 37.75 13 -4
      vertex 37.75 21 -6.75
    endloop
  endfacet
  facet normal 1 -0 0
    outer loop
      vertex 37.75 -3 -1
      vertex 37.75 21 -4
      vertex 37.75 60 -1
    endloop
  endfacet
  facet normal 1 0 0
    outer loop
      vertex 37.75 21 -4
      vertex 37.75 -3 -1
      vertex 37.75 13 -4
    endloop
  endfacet
  facet normal 1 0 0
    outer loop
      vertex 37.75 13 -4
      vertex 37.75 -3 -1
      vertex 37.75 5 -4
    endloop
  endfacet
  facet normal 1 0 0
    outer loop
      vertex 37.75 -3 -6.75
      vertex 37.75 5 -4
      vertex 37.75 -3 -1
    endloop
  endfacet
  facet normal 1 0 0
    outer loop
      vertex 37.75 5 -4
      vertex 37.75 -3 -6.75
      vertex 37.75 5 -6.75
    endloop
  endfacet
  facet normal 1 0 0
    outer loop
      vertex 37.75 60 -1
      vertex 37.75 63 23
      vertex 37.75 60 23
    endloop
  endfacet
  facet normal 1 0 0
    outer loop
      vertex 37.75 63 23
      vertex 37.75 60 -1
      vertex 37.75 63 -27
    endloop
  endfacet
  facet normal 1 -0 0
    outer loop
      vertex 37.75 60 -4
      vertex 37.75 63 -27
      vertex 37.75 60 -1
    endloop
  endfacet
  facet normal 1 0 0
    outer loop
      vertex 37.75 63 -27
      vertex 37.75 60 -4
      vertex 37.75 60 -27
    endloop
  endfacet
  facet normal 1 0 0
    outer loop
      vertex 37.75 21 -6.75
      vertex 37.75 13 -4
      vertex 37.75 13 -6.75
    endloop
  endfacet
  facet normal 0 0 -1
    outer loop
      vertex 0.75 -3 -4
      vertex 2.75 5 -4
      vertex 2.75 -3 -4
    endloop
  endfacet
  facet normal -0 0 -1
    outer loop
      vertex 2.75 5 -4
      vertex 0.75 -3 -4
      vertex 2.75 13 -4
    endloop
  endfacet
  facet normal -0 0 -1
    outer loop
      vertex 2.75 13 -4
      vertex 0.75 -3 -4
      vertex 2.75 21 -4
    endloop
  endfacet
  facet normal 0 0 -1
    outer loop
      vertex 37.75 60 -4
      vertex 15.5 50 -4
      vertex 16 52.1327 -4
    endloop
  endfacet
  facet normal 0 0 -1
    outer loop
      vertex 2.75 21 -4
      vertex 15.5 50 -4
      vertex 17.75 21 -4
    endloop
  endfacet
  facet normal 0 0 -1
    outer loop
      vertex 2.75 21 -4
      vertex 0.75 50 -4
      vertex 15.5 50 -4
    endloop
  endfacet
  facet normal 0 0 -1
    outer loop
      vertex 0.75 50 -4
      vertex 2.75 21 -4
      vertex 0.75 -3 -4
    endloop
  endfacet
  facet normal 0 0 -1
    outer loop
      vertex 2.75 5 -4
      vertex 17.75 13 -4
      vertex 17.75 5 -4
    endloop
  endfacet
  facet normal -0 0 -1
    outer loop
      vertex 17.75 13 -4
      vertex 2.75 5 -4
      vertex 2.75 13 -4
    endloop
  endfacet
  facet normal -0 0 -1
    outer loop
      vertex 16 52.1327 -4
      vertex 15.5 50 -4
      vertex 15.5 52.1327 -4
    endloop
  endfacet
  facet normal 0 0 -1
    outer loop
      vertex 17.75 5 -4
      vertex 22.75 5 -4
      vertex 22.75 -3 -4
    endloop
  endfacet
  facet normal 0 0 -1
    outer loop
      vertex 22.75 5 -4
      vertex 21.75 9 -4
      vertex 22.75 13 -4
    endloop
  endfacet
  facet normal 0 0 -1
    outer loop
      vertex 20.8863 10.1888 -4
      vertex 22.75 13 -4
      vertex 21.75 9 -4
    endloop
  endfacet
  facet normal 0 0 -1
    outer loop
      vertex 22.75 5 -4
      vertex 20.8863 7.81118 -4
      vertex 21.75 9 -4
    endloop
  endfacet
  facet normal 0 0 -1
    outer loop
      vertex 22.75 5 -4
      vertex 17.75 5 -4
      vertex 20.8863 7.81118 -4
    endloop
  endfacet
  facet normal -0 0 -1
    outer loop
      vertex 20.8863 7.81118 -4
      vertex 17.75 5 -4
      vertex 19.4887 8.26527 -4
    endloop
  endfacet
  facet normal 0 0 -1
    outer loop
      vertex 17.75 5 -4
      vertex 22.75 -3 -4
      vertex 17.75 -3 -4
    endloop
  endfacet
  facet normal 0 0 -1
    outer loop
      vertex 22.75 5 -4
      vertex 37.75 13 -4
      vertex 37.75 5 -4
    endloop
  endfacet
  facet normal -0 0 -1
    outer loop
      vertex 37.75 13 -4
      vertex 22.75 5 -4
      vertex 22.75 13 -4
    endloop
  endfacet
  facet normal 0 0 -1
    outer loop
      vertex 15.5 50 -4
      vertex 37.75 21 -4
      vertex 22.75 21 -4
    endloop
  endfacet
  facet normal 0 0 -1
    outer loop
      vertex 17.75 13 -4
      vertex 22.75 13 -4
      vertex 20.8863 10.1888 -4
    endloop
  endfacet
  facet normal 0 0 -1
    outer loop
      vertex 17.75 13 -4
      vertex 20.8863 10.1888 -4
      vertex 19.4887 9.73473 -4
    endloop
  endfacet
  facet normal -0 0 -1
    outer loop
      vertex 19.4887 8.26527 -4
      vertex 17.75 5 -4
      vertex 19.4887 9.73473 -4
    endloop
  endfacet
  facet normal 0 0 -1
    outer loop
      vertex 17.75 13 -4
      vertex 19.4887 9.73473 -4
      vertex 17.75 5 -4
    endloop
  endfacet
  facet normal 0 0 -1
    outer loop
      vertex 22.75 13 -4
      vertex 17.75 13 -4
      vertex 22.75 21 -4
    endloop
  endfacet
  facet normal 0 0 -1
    outer loop
      vertex 17.75 21 -4
      vertex 22.75 21 -4
      vertex 17.75 13 -4
    endloop
  endfacet
  facet normal 0 0 -1
    outer loop
      vertex 15.5 50 -4
      vertex 22.75 21 -4
      vertex 17.75 21 -4
    endloop
  endfacet
  facet normal 0 0 -1
    outer loop
      vertex 15.5 50 -4
      vertex 37.75 60 -4
      vertex 37.75 21 -4
    endloop
  endfacet
  facet normal 0 0 -1
    outer loop
      vertex 16 57.9862 -4
      vertex 37.75 60 -4
      vertex 16 52.1327 -4
    endloop
  endfacet
  facet normal 0 0 -1
    outer loop
      vertex 15.5 60 -4
      vertex 16 57.9862 -4
      vertex 15.5 57.9862 -4
    endloop
  endfacet
  facet normal 0 0 -1
    outer loop
      vertex 16 57.9862 -4
      vertex 15.5 60 -4
      vertex 37.75 60 -4
    endloop
  endfacet
  facet normal 0 -1 0
    outer loop
      vertex 2.75 -3 -6.75
      vertex 17.75 -3 -4
      vertex 2.75 -3 -4
    endloop
  endfacet
  facet normal 0 -1 -0
    outer loop
      vertex 17.75 -3 -4
      vertex 2.75 -3 -6.75
      vertex 17.75 -3 -6.75
    endloop
  endfacet
  facet normal 0 -1 0
    outer loop
      vertex 2.75 -3 -4
      vertex 0.75 -3 -1
      vertex 0.75 -3 -4
    endloop
  endfacet
  facet normal 0 -1 0
    outer loop
      vertex 17.75 -3 -4
      vertex 0.75 -3 -1
      vertex 2.75 -3 -4
    endloop
  endfacet
  facet normal 0 -1 0
    outer loop
      vertex 0.75 -3 -1
      vertex 17.75 -3 -4
      vertex 37.75 -3 -1
    endloop
  endfacet
  facet normal 0 -1 0
    outer loop
      vertex 22.75 -3 -4
      vertex 37.75 -3 -1
      vertex 17.75 -3 -4
    endloop
  endfacet
  facet normal 0 -1 0
    outer loop
      vertex 37.75 -3 -6.75
      vertex 22.75 -3 -4
      vertex 22.75 -3 -6.75
    endloop
  endfacet
  facet normal 0 -1 0
    outer loop
      vertex 22.75 -3 -4
      vertex 37.75 -3 -6.75
      vertex 37.75 -3 -1
    endloop
  endfacet
  facet normal -0.809017 -0.587786 0
    outer loop
      vertex 21.75 9 -4
      vertex 20.8863 10.1888 -2.75
      vertex 20.8863 10.1888 -4
    endloop
  endfacet
  facet normal -0.809017 -0.587786 0
    outer loop
      vertex 20.8863 10.1888 -2.75
      vertex 21.75 9 -4
      vertex 21.75 9 -2.75
    endloop
  endfacet
  facet normal 1 -0 0
    outer loop
      vertex 19.4887 8.26527 -2.75
      vertex 19.4887 9.73473 -4
      vertex 19.4887 9.73473 -2.75
    endloop
  endfacet
  facet normal 1 0 0
    outer loop
      vertex 19.4887 9.73473 -4
      vertex 19.4887 8.26527 -2.75
      vertex 19.4887 8.26527 -4
    endloop
  endfacet
  facet normal 0.309017 -0.951057 0
    outer loop
      vertex 19.4887 9.73473 -4
      vertex 20.8863 10.1888 -2.75
      vertex 19.4887 9.73473 -2.75
    endloop
  endfacet
  facet normal 0.309017 -0.951057 0
    outer loop
      vertex 20.8863 10.1888 -2.75
      vertex 19.4887 9.73473 -4
      vertex 20.8863 10.1888 -4
    endloop
  endfacet
  facet normal 0.309017 0.951057 -0
    outer loop
      vertex 20.8863 7.81118 -4
      vertex 19.4887 8.26527 -2.75
      vertex 20.8863 7.81118 -2.75
    endloop
  endfacet
  facet normal 0.309017 0.951057 0
    outer loop
      vertex 19.4887 8.26527 -2.75
      vertex 20.8863 7.81118 -4
      vertex 19.4887 8.26527 -4
    endloop
  endfacet
  facet normal -0.809017 0.587786 0
    outer loop
      vertex 20.8863 7.81118 -4
      vertex 21.75 9 -2.75
      vertex 21.75 9 -4
    endloop
  endfacet
  facet normal -0.809017 0.587786 0
    outer loop
      vertex 21.75 9 -2.75
      vertex 20.8863 7.81118 -4
      vertex 20.8863 7.81118 -2.75
    endloop
  endfacet
  facet normal -0.970942 -0.239316 0
    outer loop
      vertex 24.5 9 -2.75
      vertex 24.0418 10.8589 -1
      vertex 24.0418 10.8589 -2.75
    endloop
  endfacet
  facet normal -0.970942 -0.239316 0
    outer loop
      vertex 24.0418 10.8589 -1
      vertex 24.5 9 -2.75
      vertex 24.5 9 -1
    endloop
  endfacet
  facet normal 1 -0 0
    outer loop
      vertex 16.6162 8.04274 -1
      vertex 16.6162 9.95726 -2.75
      vertex 16.6162 9.95726 -1
    endloop
  endfacet
  facet normal 1 0 0
    outer loop
      vertex 16.6162 9.95726 -2.75
      vertex 16.6162 8.04274 -1
      vertex 16.6162 8.04274 -2.75
    endloop
  endfacet
  facet normal 0.120536 -0.992709 0
    outer loop
      vertex 19.0816 12.7401 -2.75
      vertex 20.9821 12.9708 -1
      vertex 19.0816 12.7401 -1
    endloop
  endfacet
  facet normal 0.120536 -0.992709 0
    outer loop
      vertex 20.9821 12.9708 -1
      vertex 19.0816 12.7401 -2.75
      vertex 20.9821 12.9708 -2.75
    endloop
  endfacet
  facet normal -0.748511 -0.663123 0
    outer loop
      vertex 24.0418 10.8589 -2.75
      vertex 22.7723 12.2919 -1
      vertex 22.7723 12.2919 -2.75
    endloop
  endfacet
  facet normal -0.748511 -0.663123 0
    outer loop
      vertex 22.7723 12.2919 -1
      vertex 24.0418 10.8589 -2.75
      vertex 24.0418 10.8589 -1
    endloop
  endfacet
  facet normal 0.568064 -0.822984 0
    outer loop
      vertex 17.506 11.6525 -2.75
      vertex 19.0816 12.7401 -1
      vertex 17.506 11.6525 -1
    endloop
  endfacet
  facet normal 0.568064 -0.822984 0
    outer loop
      vertex 19.0816 12.7401 -1
      vertex 17.506 11.6525 -2.75
      vertex 19.0816 12.7401 -2.75
    endloop
  endfacet
  facet normal -0.970942 0.239315 0
    outer loop
      vertex 24.0418 7.14111 -2.75
      vertex 24.5 9 -1
      vertex 24.5 9 -2.75
    endloop
  endfacet
  facet normal -0.970942 0.239315 0
    outer loop
      vertex 24.5 9 -1
      vertex 24.0418 7.14111 -2.75
      vertex 24.0418 7.14111 -1
    endloop
  endfacet
  facet normal -0.354605 -0.935016 0
    outer loop
      vertex 20.9821 12.9708 -2.75
      vertex 22.7723 12.2919 -1
      vertex 20.9821 12.9708 -1
    endloop
  endfacet
  facet normal -0.354605 -0.935016 -0
    outer loop
      vertex 22.7723 12.2919 -1
      vertex 20.9821 12.9708 -2.75
      vertex 22.7723 12.2919 -2.75
    endloop
  endfacet
  facet normal 0.885456 -0.464723 0
    outer loop
      vertex 16.6162 9.95726 -1
      vertex 17.506 11.6525 -2.75
      vertex 17.506 11.6525 -1
    endloop
  endfacet
  facet normal 0.885456 -0.464723 0
    outer loop
      vertex 17.506 11.6525 -2.75
      vertex 16.6162 9.95726 -1
      vertex 16.6162 9.95726 -2.75
    endloop
  endfacet
  facet normal 0.885456 0.464723 0
    outer loop
      vertex 17.506 6.34751 -1
      vertex 16.6162 8.04274 -2.75
      vertex 16.6162 8.04274 -1
    endloop
  endfacet
  facet normal 0.885456 0.464723 0
    outer loop
      vertex 16.6162 8.04274 -2.75
      vertex 17.506 6.34751 -1
      vertex 17.506 6.34751 -2.75
    endloop
  endfacet
  facet normal -0.748511 0.663123 0
    outer loop
      vertex 22.7723 5.70806 -2.75
      vertex 24.0418 7.14111 -1
      vertex 24.0418 7.14111 -2.75
    endloop
  endfacet
  facet normal -0.748511 0.663123 0
    outer loop
      vertex 24.0418 7.14111 -1
      vertex 22.7723 5.70806 -2.75
      vertex 22.7723 5.70806 -1
    endloop
  endfacet
  facet normal 0 0 1
    outer loop
      vertex 21.75 9 -2.75
      vertex 24.5 9 -2.75
      vertex 24.0418 10.8589 -2.75
    endloop
  endfacet
  facet normal 0 0 1
    outer loop
      vertex 20.8863 10.1888 -2.75
      vertex 24.0418 10.8589 -2.75
      vertex 22.7723 12.2919 -2.75
    endloop
  endfacet
  facet normal 0 0 1
    outer loop
      vertex 24.5 9 -2.75
      vertex 21.75 9 -2.75
      vertex 24.0418 7.14111 -2.75
    endloop
  endfacet
  facet normal -0 0 1
    outer loop
      vertex 20.8863 7.81118 -2.75
      vertex 24.0418 7.14111 -2.75
      vertex 21.75 9 -2.75
    endloop
  endfacet
  facet normal 0 0 1
    outer loop
      vertex 20.8863 10.1888 -2.75
      vertex 22.7723 12.2919 -2.75
      vertex 20.9821 12.9708 -2.75
    endloop
  endfacet
  facet normal 0 0 1
    outer loop
      vertex 24.0418 10.8589 -2.75
      vertex 20.8863 10.1888 -2.75
      vertex 21.75 9 -2.75
    endloop
  endfacet
  facet normal -0 0 1
    outer loop
      vertex 19.0816 12.7401 -2.75
      vertex 20.8863 10.1888 -2.75
      vertex 20.9821 12.9708 -2.75
    endloop
  endfacet
  facet normal -0 0 1
    outer loop
      vertex 17.506 11.6525 -2.75
      vertex 19.4887 9.73473 -2.75
      vertex 19.0816 12.7401 -2.75
    endloop
  endfacet
  facet normal 0 0 1
    outer loop
      vertex 20.8863 10.1888 -2.75
      vertex 19.0816 12.7401 -2.75
      vertex 19.4887 9.73473 -2.75
    endloop
  endfacet
  facet normal 0 0 1
    outer loop
      vertex 24.0418 7.14111 -2.75
      vertex 20.8863 7.81118 -2.75
      vertex 22.7723 5.70806 -2.75
    endloop
  endfacet
  facet normal 0 0 1
    outer loop
      vertex 22.7723 5.70806 -2.75
      vertex 20.8863 7.81118 -2.75
      vertex 20.9821 5.02916 -2.75
    endloop
  endfacet
  facet normal 0 0 1
    outer loop
      vertex 19.0816 5.25993 -2.75
      vertex 20.8863 7.81118 -2.75
      vertex 19.4887 8.26527 -2.75
    endloop
  endfacet
  facet normal 0 0 1
    outer loop
      vertex 20.8863 7.81118 -2.75
      vertex 19.0816 5.25993 -2.75
      vertex 20.9821 5.02916 -2.75
    endloop
  endfacet
  facet normal -0 0 1
    outer loop
      vertex 16.6162 9.95726 -2.75
      vertex 19.4887 9.73473 -2.75
      vertex 17.506 11.6525 -2.75
    endloop
  endfacet
  facet normal 0 0 1
    outer loop
      vertex 19.4887 9.73473 -2.75
      vertex 16.6162 9.95726 -2.75
      vertex 19.4887 8.26527 -2.75
    endloop
  endfacet
  facet normal 0 0 1
    outer loop
      vertex 19.4887 8.26527 -2.75
      vertex 17.506 6.34751 -2.75
      vertex 19.0816 5.25993 -2.75
    endloop
  endfacet
  facet normal 0 0 1
    outer loop
      vertex 16.6162 8.04274 -2.75
      vertex 19.4887 8.26527 -2.75
      vertex 16.6162 9.95726 -2.75
    endloop
  endfacet
  facet normal 0 0 1
    outer loop
      vertex 19.4887 8.26527 -2.75
      vertex 16.6162 8.04274 -2.75
      vertex 17.506 6.34751 -2.75
    endloop
  endfacet
  facet normal 0.568064 0.822984 -0
    outer loop
      vertex 19.0816 5.25993 -2.75
      vertex 17.506 6.34751 -1
      vertex 19.0816 5.25993 -1
    endloop
  endfacet
  facet normal 0.568064 0.822984 0
    outer loop
      vertex 17.506 6.34751 -1
      vertex 19.0816 5.25993 -2.75
      vertex 17.506 6.34751 -2.75
    endloop
  endfacet
  facet normal -0.354605 0.935016 0
    outer loop
      vertex 22.7723 5.70806 -2.75
      vertex 20.9821 5.02916 -1
      vertex 22.7723 5.70806 -1
    endloop
  endfacet
  facet normal -0.354605 0.935016 0
    outer loop
      vertex 20.9821 5.02916 -1
      vertex 22.7723 5.70806 -2.75
      vertex 20.9821 5.02916 -2.75
    endloop
  endfacet
  facet normal 0.120536 0.992709 -0
    outer loop
      vertex 20.9821 5.02916 -2.75
      vertex 19.0816 5.25993 -1
      vertex 20.9821 5.02916 -1
    endloop
  endfacet
  facet normal 0.120536 0.992709 0
    outer loop
      vertex 19.0816 5.25993 -1
      vertex 20.9821 5.02916 -2.75
      vertex 19.0816 5.25993 -2.75
    endloop
  endfacet
  facet normal 0 -0.959493 -0.281732
    outer loop
      vertex 0.5 57.9444 -0.357757
      vertex 15.5 58.133 -1
      vertex 15.5 57.9444 -0.357757
    endloop
  endfacet
  facet normal 0 -0.959493 -0.281734
    outer loop
      vertex 15.5 58.133 -1
      vertex 16 58.5 -2.25
      vertex 16 58.133 -1
    endloop
  endfacet
  facet normal -7.68041e-008 -0.959493 -0.281734
    outer loop
      vertex 16 58.5 -2.25
      vertex 15.5 58.133 -1
      vertex 0.5 57.9444 -0.357757
    endloop
  endfacet
  facet normal 1.73343e-008 -0.959493 -0.281733
    outer loop
      vertex 0.5 58.5 -2.25
      vertex 16 58.5 -2.25
      vertex 0.5 57.9444 -0.357757
    endloop
  endfacet
  facet normal 0 1 0
    outer loop
      vertex 16 51.6418 -3.23606
      vertex 0.5 51.6418 -1.26394
      vertex 16 51.6418 -1.26394
    endloop
  endfacet
  facet normal 0 1 0
    outer loop
      vertex 0.5 51.6418 -1.26394
      vertex 16 51.6418 -3.23606
      vertex 0.5 51.6418 -3.23606
    endloop
  endfacet
  facet normal -1 1.22193e-006 -7.85288e-007
    outer loop
      vertex 16 53.0788 -1
      vertex 16 51.6418 -3.23606
      vertex 16 52.2983 -1
    endloop
  endfacet
  facet normal -1 1.94395e-007 -4.83577e-007
    outer loop
      vertex 16 51.6418 -1.26394
      vertex 16 52.2983 -1
      vertex 16 51.6418 -3.23606
    endloop
  endfacet
  facet normal -1 -0 0
    outer loop
      vertex 16 52.2983 -1
      vertex 16 51.6418 -1.26394
      vertex 16 51.8114 -1
    endloop
  endfacet
  facet normal 0 0.841255 -0.540639
    outer loop
      vertex 16 51.8114 -1
      vertex 16 51.6418 -1.26394
      vertex 15.5 51.8114 -1
    endloop
  endfacet
  facet normal 0 0.841254 -0.540641
    outer loop
      vertex 15.5 51.8114 -1
      vertex 0.5 52.708 0.395123
      vertex 15.5 52.708 0.395123
    endloop
  endfacet
  facet normal 0 0.841255 -0.540639
    outer loop
      vertex 0.5 51.6418 -1.26394
      vertex 15.5 51.8114 -1
      vertex 16 51.6418 -1.26394
    endloop
  endfacet
  facet normal 3.94774e-008 0.841254 -0.54064
    outer loop
      vertex 15.5 51.8114 -1
      vertex 0.5 51.6418 -1.26394
      vertex 0.5 52.708 0.395123
    endloop
  endfacet
  facet normal -1 0 0
    outer loop
      vertex 16 57.9862 -4
      vertex 16 58.133 -1
      vertex 16 58.5 -2.25
    endloop
  endfacet
  facet normal -1 0 0
    outer loop
      vertex 16 57.9862 -4
      vertex 16 53.0788 -1
      vertex 16 58.133 -1
    endloop
  endfacet
  facet normal -1 0 0
    outer loop
      vertex 16 52.1327 -4
      vertex 16 53.0788 -1
      vertex 16 57.9862 -4
    endloop
  endfacet
  facet normal -1 0 0
    outer loop
      vertex 16 53.0788 -1
      vertex 16 52.1327 -4
      vertex 16 51.6418 -3.23606
    endloop
  endfacet
  facet normal -0 0.841254 0.54064
    outer loop
      vertex 15.5 52.1327 -4
      vertex 16 51.6418 -3.23606
      vertex 16 52.1327 -4
    endloop
  endfacet
  facet normal 0 0.841254 0.54064
    outer loop
      vertex 16 51.6418 -3.23606
      vertex 15.5 52.1327 -4
      vertex 0.5 51.6418 -3.23606
    endloop
  endfacet
  facet normal -0 0.841254 0.54064
    outer loop
      vertex 0.5 52.708 -4.89512
      vertex 15.5 52.1327 -4
      vertex 15.5 52.708 -4.89512
    endloop
  endfacet
  facet normal 9.14306e-009 0.841254 0.54064
    outer loop
      vertex 15.5 52.1327 -4
      vertex 0.5 52.708 -4.89512
      vertex 0.5 51.6418 -3.23606
    endloop
  endfacet
  facet normal 1.44573e-007 -0.959493 0.281733
    outer loop
      vertex 0.5 57.9444 -4.14224
      vertex 15.5 57.9623 -4.0812
      vertex 0.5 58.5 -2.25
    endloop
  endfacet
  facet normal 0 -0.959483 0.281766
    outer loop
      vertex 15.5 57.9623 -4.0812
      vertex 0.5 57.9444 -4.14224
      vertex 15.5 57.9444 -4.14224
    endloop
  endfacet
  facet normal -1.9235e-006 -0.959497 0.281718
    outer loop
      vertex 0.5 58.5 -2.25
      vertex 15.5 57.9623 -4.0812
      vertex 15.5 57.9862 -4
    endloop
  endfacet
  facet normal -1.73343e-008 -0.959493 0.281733
    outer loop
      vertex 15.5 57.9862 -4
      vertex 16 58.5 -2.25
      vertex 0.5 58.5 -2.25
    endloop
  endfacet
  facet normal 0 -0.959493 0.281733
    outer loop
      vertex 16 58.5 -2.25
      vertex 15.5 57.9862 -4
      vertex 16 57.9862 -4
    endloop
  endfacet
  facet normal -1 0 0
    outer loop
      vertex 0.5 60 -7
      vertex 0.5 58.5 -2.25
      vertex 0.5 60 3
    endloop
  endfacet
  facet normal -1 0 0
    outer loop
      vertex 0.5 60 -7
      vertex 0.5 57.9444 -4.14224
      vertex 0.5 58.5 -2.25
    endloop
  endfacet
  facet normal -1 0 0
    outer loop
      vertex 0.5 60 -7
      vertex 0.5 56.454 -5.43371
      vertex 0.5 57.9444 -4.14224
    endloop
  endfacet
  facet normal -1 0 0
    outer loop
      vertex 0.5 60 -7
      vertex 0.5 54.5019 -5.71437
      vertex 0.5 56.454 -5.43371
    endloop
  endfacet
  facet normal -1 -0 0
    outer loop
      vertex 0.5 51.6418 -3.23606
      vertex 0.5 50 -7
      vertex 0.5 51.6418 -1.26394
    endloop
  endfacet
  facet normal -1 -0 0
    outer loop
      vertex 0.5 52.708 -4.89512
      vertex 0.5 50 -7
      vertex 0.5 51.6418 -3.23606
    endloop
  endfacet
  facet normal -1 -0 0
    outer loop
      vertex 0.5 54.5019 -5.71437
      vertex 0.5 50 -7
      vertex 0.5 52.708 -4.89512
    endloop
  endfacet
  facet normal -1 0 0
    outer loop
      vertex 0.5 50 -7
      vertex 0.5 54.5019 -5.71437
      vertex 0.5 60 -7
    endloop
  endfacet
  facet normal -1 0 0
    outer loop
      vertex 0.5 57.9444 -0.357757
      vertex 0.5 60 3
      vertex 0.5 58.5 -2.25
    endloop
  endfacet
  facet normal -1 0 0
    outer loop
      vertex 0.5 56.454 0.933711
      vertex 0.5 60 3
      vertex 0.5 57.9444 -0.357757
    endloop
  endfacet
  facet normal -1 0 0
    outer loop
      vertex 0.5 54.5019 1.21437
      vertex 0.5 60 3
      vertex 0.5 56.454 0.933711
    endloop
  endfacet
  facet normal -1 0 0
    outer loop
      vertex 0.5 54.5019 1.21437
      vertex 0.5 50 3
      vertex 0.5 60 3
    endloop
  endfacet
  facet normal -1 0 0
    outer loop
      vertex 0.5 52.708 0.395123
      vertex 0.5 50 3
      vertex 0.5 54.5019 1.21437
    endloop
  endfacet
  facet normal -1 0 0
    outer loop
      vertex 0.5 51.6418 -1.26394
      vertex 0.5 50 3
      vertex 0.5 52.708 0.395123
    endloop
  endfacet
  facet normal -1 0 0
    outer loop
      vertex 0.5 50 3
      vertex 0.5 51.6418 -1.26394
      vertex 0.5 50 -7
    endloop
  endfacet
  facet normal -0 0 1
    outer loop
      vertex 0.75 60 3
      vertex 15.5 50 3
      vertex 15.5 60 3
    endloop
  endfacet
  facet normal 0 0 1
    outer loop
      vertex 0.5 50 3
      vertex 0.75 60 3
      vertex 0.5 60 3
    endloop
  endfacet
  facet normal 0 0 1
    outer loop
      vertex 0.75 60 3
      vertex 0.5 50 3
      vertex 15.5 50 3
    endloop
  endfacet
  facet normal 1 -0 0
    outer loop
      vertex 15.5 57.9444 -0.357757
      vertex 15.5 60 -1
      vertex 15.5 60 3
    endloop
  endfacet
  facet normal 1 0 0
    outer loop
      vertex 15.5 60 -1
      vertex 15.5 57.9444 -0.357757
      vertex 15.5 58.133 -1
    endloop
  endfacet
  facet normal 1 0 0
    outer loop
      vertex 15.5 60 3
      vertex 15.5 56.454 0.933711
      vertex 15.5 57.9444 -0.357757
    endloop
  endfacet
  facet normal 1 0 0
    outer loop
      vertex 15.5 60 3
      vertex 15.5 54.5019 1.21437
      vertex 15.5 56.454 0.933711
    endloop
  endfacet
  facet normal 1 -0 0
    outer loop
      vertex 15.5 50 3
      vertex 15.5 54.5019 1.21437
      vertex 15.5 60 3
    endloop
  endfacet
  facet normal 1 0 0
    outer loop
      vertex 15.5 50 3
      vertex 15.5 52.708 0.395123
      vertex 15.5 54.5019 1.21437
    endloop
  endfacet
  facet normal 1 0 0
    outer loop
      vertex 15.5 50 -1
      vertex 15.5 52.708 0.395123
      vertex 15.5 50 3
    endloop
  endfacet
  facet normal 1 0 0
    outer loop
      vertex 15.5 52.708 0.395123
      vertex 15.5 50 -1
      vertex 15.5 51.8114 -1
    endloop
  endfacet
  facet normal 1 0 0
    outer loop
      vertex 15.5 57.9623 -4.0812
      vertex 15.5 60 -4
      vertex 15.5 57.9862 -4
    endloop
  endfacet
  facet normal 1 0 0
    outer loop
      vertex 15.5 57.9444 -4.14224
      vertex 15.5 60 -4
      vertex 15.5 57.9623 -4.0812
    endloop
  endfacet
  facet normal 1 0 0
    outer loop
      vertex 15.5 60 -4
      vertex 15.5 57.9444 -4.14224
      vertex 15.5 60 -7
    endloop
  endfacet
  facet normal 1 -0 0
    outer loop
      vertex 15.5 56.454 -5.43371
      vertex 15.5 60 -7
      vertex 15.5 57.9444 -4.14224
    endloop
  endfacet
  facet normal 1 -0 0
    outer loop
      vertex 15.5 54.5019 -5.71437
      vertex 15.5 60 -7
      vertex 15.5 56.454 -5.43371
    endloop
  endfacet
  facet normal 1 -0 0
    outer loop
      vertex 15.5 50 -4
      vertex 15.5 52.708 -4.89512
      vertex 15.5 52.1327 -4
    endloop
  endfacet
  facet normal 1 0 0
    outer loop
      vertex 15.5 50 -7
      vertex 15.5 52.708 -4.89512
      vertex 15.5 50 -4
    endloop
  endfacet
  facet normal 1 0 0
    outer loop
      vertex 15.5 54.5019 -5.71437
      vertex 15.5 50 -7
      vertex 15.5 60 -7
    endloop
  endfacet
  facet normal 1 0 0
    outer loop
      vertex 15.5 52.708 -4.89512
      vertex 15.5 50 -7
      vertex 15.5 54.5019 -5.71437
    endloop
  endfacet
  facet normal 0 0 -1
    outer loop
      vertex 15.5 50 -7
      vertex 0.75 60 -7
      vertex 15.5 60 -7
    endloop
  endfacet
  facet normal 0 0 -1
    outer loop
      vertex 0.5 50 -7
      vertex 0.75 60 -7
      vertex 15.5 50 -7
    endloop
  endfacet
  facet normal -0 0 -1
    outer loop
      vertex 0.75 60 -7
      vertex 0.5 50 -7
      vertex 0.5 60 -7
    endloop
  endfacet
  facet normal 0 -1 0
    outer loop
      vertex 0.5 50 3
      vertex 0.75 50 -1
      vertex 15.5 50 3
    endloop
  endfacet
  facet normal 0 -1 0
    outer loop
      vertex 0.5 50 -7
      vertex 0.75 50 -1
      vertex 0.5 50 3
    endloop
  endfacet
  facet normal 0 -1 -0
    outer loop
      vertex 0.75 50 -1
      vertex 0.5 50 -7
      vertex 0.75 50 -4
    endloop
  endfacet
  facet normal 0 -1 0
    outer loop
      vertex 15.5 50 -7
      vertex 0.75 50 -4
      vertex 0.5 50 -7
    endloop
  endfacet
  facet normal 0 -1 0
    outer loop
      vertex 0.75 50 -4
      vertex 15.5 50 -7
      vertex 15.5 50 -4
    endloop
  endfacet
  facet normal 0 -1 -0
    outer loop
      vertex 15.5 50 3
      vertex 0.75 50 -1
      vertex 15.5 50 -1
    endloop
  endfacet
  facet normal 0 -1 0
    outer loop
      vertex 15.5 60 3
      vertex 0.75 60 23
      vertex 0.75 60 3
    endloop
  endfacet
  facet normal 0 -1 0
    outer loop
      vertex 0.75 60 23
      vertex 15.5 60 3
      vertex 37.75 60 23
    endloop
  endfacet
  facet normal 0 -1 0
    outer loop
      vertex 37.75 60 -1
      vertex 15.5 60 3
      vertex 15.5 60 -1
    endloop
  endfacet
  facet normal 0 -1 0
    outer loop
      vertex 15.5 60 3
      vertex 37.75 60 -1
      vertex 37.75 60 23
    endloop
  endfacet
  facet normal 0 1 -0
    outer loop
      vertex 0.75 60 -7
      vertex 0.5 60 3
      vertex 0.75 60 3
    endloop
  endfacet
  facet normal 0 1 0
    outer loop
      vertex 0.5 60 3
      vertex 0.75 60 -7
      vertex 0.5 60 -7
    endloop
  endfacet
  facet normal 0 -1 0
    outer loop
      vertex 0.75 60 -7
      vertex 0.75 60 -27
      vertex 15.5 60 -7
    endloop
  endfacet
  facet normal 0 -1 0
    outer loop
      vertex 15.5 60 -7
      vertex 37.75 60 -4
      vertex 15.5 60 -4
    endloop
  endfacet
  facet normal 0 -1 0
    outer loop
      vertex 37.75 60 -27
      vertex 15.5 60 -7
      vertex 0.75 60 -27
    endloop
  endfacet
  facet normal 0 -1 0
    outer loop
      vertex 15.5 60 -7
      vertex 37.75 60 -27
      vertex 37.75 60 -4
    endloop
  endfacet
  facet normal 0 -0.142315 -0.989821
    outer loop
      vertex 0.5 54.5019 1.21437
      vertex 15.5 56.454 0.933711
      vertex 15.5 54.5019 1.21437
    endloop
  endfacet
  facet normal -0 -0.142315 -0.989821
    outer loop
      vertex 15.5 56.454 0.933711
      vertex 0.5 54.5019 1.21437
      vertex 0.5 56.454 0.933711
    endloop
  endfacet
  facet normal 0 -0.654861 -0.755749
    outer loop
      vertex 0.5 56.454 0.933711
      vertex 15.5 57.9444 -0.357757
      vertex 15.5 56.454 0.933711
    endloop
  endfacet
  facet normal -0 -0.654861 -0.755749
    outer loop
      vertex 15.5 57.9444 -0.357757
      vertex 0.5 56.454 0.933711
      vertex 0.5 57.9444 -0.357757
    endloop
  endfacet
  facet normal 0 0.415414 -0.909632
    outer loop
      vertex 0.5 52.708 0.395123
      vertex 15.5 54.5019 1.21437
      vertex 15.5 52.708 0.395123
    endloop
  endfacet
  facet normal 0 0.415414 -0.909632
    outer loop
      vertex 15.5 54.5019 1.21437
      vertex 0.5 52.708 0.395123
      vertex 0.5 54.5019 1.21437
    endloop
  endfacet
  facet normal -0 0.415414 0.909632
    outer loop
      vertex 0.5 54.5019 -5.71437
      vertex 15.5 52.708 -4.89512
      vertex 15.5 54.5019 -5.71437
    endloop
  endfacet
  facet normal 0 0.415414 0.909632
    outer loop
      vertex 15.5 52.708 -4.89512
      vertex 0.5 54.5019 -5.71437
      vertex 0.5 52.708 -4.89512
    endloop
  endfacet
  facet normal 0 -0.654861 0.755749
    outer loop
      vertex 0.5 57.9444 -4.14224
      vertex 15.5 56.454 -5.43371
      vertex 15.5 57.9444 -4.14224
    endloop
  endfacet
  facet normal 0 -0.654861 0.755749
    outer loop
      vertex 15.5 56.454 -5.43371
      vertex 0.5 57.9444 -4.14224
      vertex 0.5 56.454 -5.43371
    endloop
  endfacet
  facet normal 0 -0.142315 0.989821
    outer loop
      vertex 0.5 56.454 -5.43371
      vertex 15.5 54.5019 -5.71437
      vertex 15.5 56.454 -5.43371
    endloop
  endfacet
  facet normal 0 -0.142315 0.989821
    outer loop
      vertex 15.5 54.5019 -5.71437
      vertex 0.5 56.454 -5.43371
      vertex 0.5 54.5019 -5.71437
    endloop
  endfacet
  facet normal -0 0 1
    outer loop
      vertex 0.75 63 23
      vertex 37.75 60 23
      vertex 37.75 63 23
    endloop
  endfacet
  facet normal 0 0 1
    outer loop
      vertex 37.75 60 23
      vertex 0.75 63 23
      vertex 0.75 60 23
    endloop
  endfacet
  facet normal 0 1 -0
    outer loop
      vertex 37.75 63 -27
      vertex 0.75 63 23
      vertex 37.75 63 23
    endloop
  endfacet
  facet normal 0 1 0
    outer loop
      vertex 0.75 63 23
      vertex 37.75 63 -27
      vertex 0.75 63 -27
    endloop
  endfacet
  facet normal 0 0 -1
    outer loop
      vertex 0.75 60 -27
      vertex 37.75 63 -27
      vertex 37.75 60 -27
    endloop
  endfacet
  facet normal -0 0 -1
    outer loop
      vertex 37.75 63 -27
      vertex 0.75 60 -27
      vertex 0.75 63 -27
    endloop
  endfacet
  facet normal -1 0 0
    outer loop
      vertex 2.75 -3 -6.75
      vertex 2.75 5 -4
      vertex 2.75 5 -6.75
    endloop
  endfacet
  facet normal -1 -0 0
    outer loop
      vertex 2.75 5 -4
      vertex 2.75 -3 -6.75
      vertex 2.75 -3 -4
    endloop
  endfacet
  facet normal 1 -0 0
    outer loop
      vertex 17.75 -3 -4
      vertex 17.75 5 -6.75
      vertex 17.75 5 -4
    endloop
  endfacet
  facet normal 1 0 0
    outer loop
      vertex 17.75 5 -6.75
      vertex 17.75 -3 -4
      vertex 17.75 -3 -6.75
    endloop
  endfacet
  facet normal 0 0 -1
    outer loop
      vertex 2.75 -3 -6.75
      vertex 17.75 5 -6.75
      vertex 17.75 -3 -6.75
    endloop
  endfacet
  facet normal -0 0 -1
    outer loop
      vertex 17.75 5 -6.75
      vertex 2.75 -3 -6.75
      vertex 2.75 5 -6.75
    endloop
  endfacet
  facet normal 0 1 -0
    outer loop
      vertex 17.75 5 -6.75
      vertex 2.75 5 -4
      vertex 17.75 5 -4
    endloop
  endfacet
  facet normal 0 1 0
    outer loop
      vertex 2.75 5 -4
      vertex 17.75 5 -6.75
      vertex 2.75 5 -6.75
    endloop
  endfacet
  facet normal -1 0 0
    outer loop
      vertex 2.75 13 -6.75
      vertex 2.75 21 -4
      vertex 2.75 21 -6.75
    endloop
  endfacet
  facet normal -1 -0 0
    outer loop
      vertex 2.75 21 -4
      vertex 2.75 13 -6.75
      vertex 2.75 13 -4
    endloop
  endfacet
  facet normal 1 -0 0
    outer loop
      vertex 17.75 13 -4
      vertex 17.75 21 -6.75
      vertex 17.75 21 -4
    endloop
  endfacet
  facet normal 1 0 0
    outer loop
      vertex 17.75 21 -6.75
      vertex 17.75 13 -4
      vertex 17.75 13 -6.75
    endloop
  endfacet
  facet normal 0 0 -1
    outer loop
      vertex 2.75 13 -6.75
      vertex 17.75 21 -6.75
      vertex 17.75 13 -6.75
    endloop
  endfacet
  facet normal -0 0 -1
    outer loop
      vertex 17.75 21 -6.75
      vertex 2.75 13 -6.75
      vertex 2.75 21 -6.75
    endloop
  endfacet
  facet normal 0 -1 0
    outer loop
      vertex 2.75 13 -6.75
      vertex 17.75 13 -4
      vertex 2.75 13 -4
    endloop
  endfacet
  facet normal 0 -1 -0
    outer loop
      vertex 17.75 13 -4
      vertex 2.75 13 -6.75
      vertex 17.75 13 -6.75
    endloop
  endfacet
  facet normal 0 1 -0
    outer loop
      vertex 17.75 21 -6.75
      vertex 2.75 21 -4
      vertex 17.75 21 -4
    endloop
  endfacet
  facet normal 0 1 0
    outer loop
      vertex 2.75 21 -4
      vertex 17.75 21 -6.75
      vertex 2.75 21 -6.75
    endloop
  endfacet
  facet normal -1 0 0
    outer loop
      vertex 22.75 -3 -6.75
      vertex 22.75 5 -4
      vertex 22.75 5 -6.75
    endloop
  endfacet
  facet normal -1 -0 0
    outer loop
      vertex 22.75 5 -4
      vertex 22.75 -3 -6.75
      vertex 22.75 -3 -4
    endloop
  endfacet
  facet normal 0 0 -1
    outer loop
      vertex 22.75 -3 -6.75
      vertex 37.75 5 -6.75
      vertex 37.75 -3 -6.75
    endloop
  endfacet
  facet normal -0 0 -1
    outer loop
      vertex 37.75 5 -6.75
      vertex 22.75 -3 -6.75
      vertex 22.75 5 -6.75
    endloop
  endfacet
  facet normal 0 1 -0
    outer loop
      vertex 37.75 5 -6.75
      vertex 22.75 5 -4
      vertex 37.75 5 -4
    endloop
  endfacet
  facet normal 0 1 0
    outer loop
      vertex 22.75 5 -4
      vertex 37.75 5 -6.75
      vertex 22.75 5 -6.75
    endloop
  endfacet
  facet normal -1 0 0
    outer loop
      vertex 22.75 13 -6.75
      vertex 22.75 21 -4
      vertex 22.75 21 -6.75
    endloop
  endfacet
  facet normal -1 -0 0
    outer loop
      vertex 22.75 21 -4
      vertex 22.75 13 -6.75
      vertex 22.75 13 -4
    endloop
  endfacet
  facet normal 0 0 -1
    outer loop
      vertex 22.75 13 -6.75
      vertex 37.75 21 -6.75
      vertex 37.75 13 -6.75
    endloop
  endfacet
  facet normal -0 0 -1
    outer loop
      vertex 37.75 21 -6.75
      vertex 22.75 13 -6.75
      vertex 22.75 21 -6.75
    endloop
  endfacet
  facet normal 0 -1 0
    outer loop
      vertex 22.75 13 -6.75
      vertex 37.75 13 -4
      vertex 22.75 13 -4
    endloop
  endfacet
  facet normal 0 -1 -0
    outer loop
      vertex 37.75 13 -4
      vertex 22.75 13 -6.75
      vertex 37.75 13 -6.75
    endloop
  endfacet
  facet normal 0 1 -0
    outer loop
      vertex 37.75 21 -6.75
      vertex 22.75 21 -4
      vertex 37.75 21 -4
    endloop
  endfacet
  facet normal 0 1 0
    outer loop
      vertex 22.75 21 -4
      vertex 37.75 21 -6.75
      vertex 22.75 21 -6.75
    endloop
  endfacet
endsolid OpenSCAD_Model
